# Blender v3.0.0 OBJ File: ''
# www.blender.org
mtllib connectingrod.mtl
o cube.332
v 1.125000 0.875000 1.500000
v 1.125000 0.875000 1.875000
v 1.125000 1.250000 1.875000
v 1.125000 1.250000 1.500000
v 1.250000 0.875000 1.500000
v 1.250000 1.250000 1.500000
v 1.250000 0.875000 1.875000
v 1.250000 1.250000 1.875000
v -1.250000 0.937500 -1.875000
v -1.250000 0.937500 -0.375000
v -1.250000 1.187500 -0.375000
v -1.250000 1.187500 -1.875000
v -1.125000 0.937500 -1.875000
v -1.125000 1.187500 -1.875000
v -1.125000 0.937500 -0.375000
v -1.125000 1.187500 -0.375000
v -1.250000 0.937500 0.000000
v -1.250000 0.937500 1.500000
v -1.250000 1.187500 1.500000
v -1.250000 1.187500 0.000000
v -1.125000 0.937500 0.000000
v -1.125000 1.187500 0.000000
v -1.125000 0.937500 1.500000
v -1.125000 1.187500 1.500000
v -1.250000 0.875000 1.500000
v -1.250000 0.875000 1.875000
v -1.250000 1.250000 1.875000
v -1.250000 1.250000 1.500000
v -1.125000 0.875000 1.500000
v -1.125000 1.250000 1.500000
v -1.125000 0.875000 1.875000
v -1.125000 1.250000 1.875000
v -1.250000 0.875000 -0.375000
v -1.250000 0.875000 0.000000
v -1.250000 1.250000 0.000000
v -1.250000 1.250000 -0.375000
v -1.125000 0.875000 -0.375000
v -1.125000 1.250000 -0.375000
v -1.125000 0.875000 0.000000
v -1.125000 1.250000 0.000000
v -1.250000 0.875000 -2.250000
v -1.250000 0.875000 -1.875000
v -1.250000 1.250000 -1.875000
v -1.250000 1.250000 -2.250000
v -1.125000 0.875000 -2.250000
v -1.125000 1.250000 -2.250000
v -1.125000 0.875000 -1.875000
v -1.125000 1.250000 -1.875000
v 1.125000 0.937500 0.000000
v 1.125000 0.937500 1.500000
v 1.125000 1.187500 1.500000
v 1.125000 1.187500 0.000000
v 1.250000 0.937500 0.000000
v 1.250000 1.187500 0.000000
v 1.250000 0.937500 1.500000
v 1.250000 1.187500 1.500000
v 1.125000 0.937500 -1.875000
v 1.125000 0.937500 -0.375000
v 1.125000 1.187500 -0.375000
v 1.125000 1.187500 -1.875000
v 1.250000 0.937500 -1.875000
v 1.250000 1.187500 -1.875000
v 1.250000 0.937500 -0.375000
v 1.250000 1.187500 -0.375000
v 1.125000 0.875000 -2.250000
v 1.125000 0.875000 -1.875000
v 1.125000 1.250000 -1.875000
v 1.125000 1.250000 -2.250000
v 1.250000 0.875000 -2.250000
v 1.250000 1.250000 -2.250000
v 1.250000 0.875000 -1.875000
v 1.250000 1.250000 -1.875000
v 1.125000 0.875000 -0.375000
v 1.125000 0.875000 0.000000
v 1.125000 1.250000 0.000000
v 1.125000 1.250000 -0.375000
v 1.250000 0.875000 -0.375000
v 1.250000 1.250000 -0.375000
v 1.250000 0.875000 0.000000
v 1.250000 1.250000 0.000000
v 1.062500 1.125000 -2.125000
v 1.062500 1.000000 -2.125000
v 1.062500 1.000000 -2.000000
v 1.062500 1.125000 -2.000000
v 1.312500 1.125000 -2.125000
v 1.312500 1.125000 -2.000000
v 1.312500 1.000000 -2.125000
v 1.312500 1.000000 -2.000000
v -1.312500 1.125000 -2.125000
v -1.312500 1.000000 -2.125000
v -1.312500 1.000000 -2.000000
v -1.312500 1.125000 -2.000000
v -1.062500 1.125000 -2.125000
v -1.062500 1.125000 -2.000000
v -1.062500 1.000000 -2.125000
v -1.062500 1.000000 -2.000000
v 1.062500 1.125000 -0.250000
v 1.062500 1.000000 -0.250000
v 1.062500 1.000000 -0.125000
v 1.062500 1.125000 -0.125000
v 1.312500 1.125000 -0.250000
v 1.312500 1.125000 -0.125000
v 1.312500 1.000000 -0.250000
v 1.312500 1.000000 -0.125000
v -1.312500 1.125000 -0.250000
v -1.312500 1.000000 -0.250000
v -1.312500 1.000000 -0.125000
v -1.312500 1.125000 -0.125000
v -1.062500 1.125000 -0.250000
v -1.062500 1.125000 -0.125000
v -1.062500 1.000000 -0.250000
v -1.062500 1.000000 -0.125000
vt 0.125000 0.906250
vt 0.031250 0.906250
vt 0.031250 1.000000
vt 0.125000 1.000000
vt 0.031250 0.906250
vt 0.000000 0.906250
vt 0.000000 1.000000
vt 0.031250 1.000000
vt 0.031250 0.906250
vt 0.125000 0.906250
vt 0.125000 1.000000
vt 0.031250 1.000000
vt 0.000000 0.906250
vt 0.000000 1.000000
vt 0.031250 0.906250
vt 0.000000 0.906250
vt 0.000000 1.000000
vt 0.031250 1.000000
vt 0.125000 0.812500
vt 0.500000 0.812500
vt 0.500000 0.875000
vt 0.125000 0.875000
vt 0.125000 0.812500
vt 0.500000 0.812500
vt 0.500000 0.875000
vt 0.125000 0.875000
vt 0.125000 0.906250
vt 0.500000 0.906250
vt 0.500000 0.875000
vt 0.125000 0.875000
vt 0.375000 0.968750
vt 0.750000 0.968750
vt 0.750000 1.000000
vt 0.375000 1.000000
vt 0.125000 0.812500
vt 0.500000 0.812500
vt 0.500000 0.875000
vt 0.125000 0.875000
vt 0.125000 0.812500
vt 0.500000 0.812500
vt 0.500000 0.875000
vt 0.125000 0.875000
vt 0.125000 0.906250
vt 0.500000 0.906250
vt 0.500000 0.875000
vt 0.125000 0.875000
vt 0.375000 0.968750
vt 0.750000 0.968750
vt 0.750000 1.000000
vt 0.375000 1.000000
vt 0.125000 0.906250
vt 0.031250 0.906250
vt 0.031250 1.000000
vt 0.125000 1.000000
vt 0.000000 0.906250
vt 0.031250 0.906250
vt 0.031250 1.000000
vt 0.000000 1.000000
vt 0.031250 0.906250
vt 0.125000 0.906250
vt 0.125000 1.000000
vt 0.031250 1.000000
vt 0.000000 0.906250
vt 0.000000 1.000000
vt 0.000000 0.906250
vt 0.031250 0.906250
vt 0.031250 1.000000
vt 0.000000 1.000000
vt 0.125000 0.906250
vt 0.031250 0.906250
vt 0.031250 1.000000
vt 0.125000 1.000000
vt 0.000000 0.906250
vt 0.031250 0.906250
vt 0.031250 1.000000
vt 0.000000 1.000000
vt 0.031250 0.906250
vt 0.125000 0.906250
vt 0.125000 1.000000
vt 0.031250 1.000000
vt 0.000000 0.906250
vt 0.000000 1.000000
vt 0.000000 0.906250
vt 0.031250 0.906250
vt 0.031250 1.000000
vt 0.000000 1.000000
vt 0.125000 0.906250
vt 0.031250 0.906250
vt 0.031250 1.000000
vt 0.125000 1.000000
vt 0.000000 0.906250
vt 0.031250 0.906250
vt 0.031250 1.000000
vt 0.000000 1.000000
vt 0.031250 0.906250
vt 0.125000 0.906250
vt 0.125000 1.000000
vt 0.031250 1.000000
vt 0.000000 0.906250
vt 0.000000 1.000000
vt 0.000000 0.906250
vt 0.031250 0.906250
vt 0.031250 1.000000
vt 0.000000 1.000000
vt 0.125000 0.812500
vt 0.500000 0.812500
vt 0.500000 0.875000
vt 0.125000 0.875000
vt 0.125000 0.812500
vt 0.500000 0.812500
vt 0.500000 0.875000
vt 0.125000 0.875000
vt 0.500000 0.906250
vt 0.125000 0.906250
vt 0.375000 1.000000
vt 0.750000 1.000000
vt 0.750000 0.968750
vt 0.375000 0.968750
vt 0.125000 0.812500
vt 0.500000 0.812500
vt 0.500000 0.875000
vt 0.125000 0.875000
vt 0.125000 0.812500
vt 0.500000 0.812500
vt 0.500000 0.875000
vt 0.125000 0.875000
vt 0.500000 0.906250
vt 0.125000 0.906250
vt 0.375000 1.000000
vt 0.750000 1.000000
vt 0.750000 0.968750
vt 0.375000 0.968750
vt 0.125000 0.906250
vt 0.031250 0.906250
vt 0.031250 1.000000
vt 0.125000 1.000000
vt 0.031250 0.906250
vt 0.000000 0.906250
vt 0.000000 1.000000
vt 0.031250 1.000000
vt 0.031250 0.906250
vt 0.125000 0.906250
vt 0.125000 1.000000
vt 0.031250 1.000000
vt 0.000000 0.906250
vt 0.000000 1.000000
vt 0.031250 0.906250
vt 0.000000 0.906250
vt 0.000000 1.000000
vt 0.031250 1.000000
vt 0.125000 0.906250
vt 0.031250 0.906250
vt 0.031250 1.000000
vt 0.125000 1.000000
vt 0.031250 0.906250
vt 0.000000 0.906250
vt 0.000000 1.000000
vt 0.031250 1.000000
vt 0.031250 0.906250
vt 0.125000 0.906250
vt 0.125000 1.000000
vt 0.031250 1.000000
vt 0.000000 0.906250
vt 0.000000 1.000000
vt 0.031250 0.906250
vt 0.000000 0.906250
vt 0.000000 1.000000
vt 0.031250 1.000000
vt 0.000000 0.750000
vt 0.125000 0.750000
vt 0.125000 1.000000
vt 0.000000 1.000000
vt 0.000000 0.750000
vt 0.125000 0.750000
vt 0.125000 1.000000
vt 0.000000 1.000000
vt 0.000000 0.750000
vt 0.125000 0.750000
vt 0.125000 1.000000
vt 0.000000 1.000000
vt 0.000000 0.750000
vt 0.125000 0.750000
vt 0.125000 1.000000
vt 0.000000 1.000000
vt 0.000000 0.750000
vt 0.125000 0.750000
vt 0.125000 1.000000
vt 0.000000 1.000000
vt 0.000000 0.750000
vt 0.125000 0.750000
vt 0.125000 1.000000
vt 0.000000 1.000000
vt 0.000000 0.750000
vt 0.125000 0.750000
vt 0.125000 1.000000
vt 0.000000 1.000000
vt 0.000000 0.750000
vt 0.125000 0.750000
vt 0.125000 1.000000
vt 0.000000 1.000000
vt 0.968750 0.375000
vt 0.906250 0.375000
vt 0.906250 0.312500
vt 0.968750 0.312500
vt 0.968750 0.187500
vt 0.968750 0.312500
vt 0.906250 0.312500
vt 0.906250 0.187500
vt 0.906250 0.375000
vt 0.968750 0.375000
vt 0.968750 0.312500
vt 0.906250 0.312500
vt 0.156250 0.875000
vt 0.281250 0.875000
vt 0.281250 0.812500
vt 0.156250 0.812500
vt 0.281250 0.875000
vt 0.156250 0.875000
vt 0.906250 0.187500
vt 0.968750 0.187500
vt 0.968750 0.312500
vt 0.906250 0.312500
vt 0.968750 0.375000
vt 0.906250 0.375000
vt 0.906250 0.312500
vt 0.968750 0.312500
vt 0.968750 0.312500
vt 0.968750 0.187500
vt 0.906250 0.187500
vt 0.906250 0.312500
vt 0.906250 0.375000
vt 0.968750 0.375000
vt 0.968750 0.312500
vt 0.906250 0.312500
vt 0.156250 0.875000
vt 0.281250 0.875000
vt 0.281250 0.812500
vt 0.156250 0.812500
vt 0.281250 0.875000
vt 0.156250 0.875000
vt 0.906250 0.187500
vt 0.906250 0.312500
vt 0.968750 0.375000
vt 0.906250 0.375000
vt 0.906250 0.312500
vt 0.968750 0.312500
vt 0.968750 0.187500
vt 0.968750 0.312500
vt 0.906250 0.312500
vt 0.906250 0.187500
vt 0.906250 0.375000
vt 0.968750 0.375000
vt 0.968750 0.312500
vt 0.906250 0.312500
vt 0.156250 0.875000
vt 0.281250 0.875000
vt 0.281250 0.812500
vt 0.156250 0.812500
vt 0.281250 0.875000
vt 0.156250 0.875000
vt 0.906250 0.187500
vt 0.968750 0.187500
vt 0.968750 0.312500
vt 0.906250 0.312500
vt 0.968750 0.375000
vt 0.906250 0.375000
vt 0.906250 0.312500
vt 0.968750 0.312500
vt 0.968750 0.312500
vt 0.968750 0.187500
vt 0.906250 0.187500
vt 0.906250 0.312500
vt 0.906250 0.375000
vt 0.968750 0.375000
vt 0.968750 0.312500
vt 0.906250 0.312500
vt 0.156250 0.875000
vt 0.281250 0.875000
vt 0.281250 0.812500
vt 0.156250 0.812500
vt 0.281250 0.875000
vt 0.156250 0.875000
vt 0.906250 0.187500
vt 0.906250 0.312500
vn -1.0000 0.0000 0.0000
vn 0.0000 0.0000 -1.0000
vn 1.0000 0.0000 0.0000
vn 0.0000 -0.0000 1.0000
vn 0.0000 1.0000 0.0000
vn 0.0000 -1.0000 -0.0000
usemtl m_57c7429b-e50a-c1fa-1231-7be00e362f7d.007
s 1
f 1/1/1 2/2/1 3/3/1 4/4/1
f 5/5/2 1/6/2 4/7/2 6/8/2
f 7/9/3 5/10/3 6/11/3 8/12/3
f 2/13/4 7/9/4 8/12/4 3/14/4
f 8/15/5 6/8/5 4/7/5 3/16/5
f 2/13/6 1/17/6 5/18/6 7/9/6
f 9/19/1 10/20/1 11/21/1 12/22/1
f 15/23/3 13/24/3 14/25/3 16/26/3
f 16/27/5 14/28/5 12/29/5 11/30/5
f 10/31/6 9/32/6 13/33/6 15/34/6
f 17/35/1 18/36/1 19/37/1 20/38/1
f 23/39/3 21/40/3 22/41/3 24/42/3
f 24/43/5 22/44/5 20/45/5 19/46/5
f 18/47/6 17/48/6 21/49/6 23/50/6
f 25/51/1 26/52/1 27/53/1 28/54/1
f 29/55/2 25/56/2 28/57/2 30/58/2
f 31/59/3 29/60/3 30/61/3 32/62/3
f 26/52/4 31/63/4 32/64/4 27/53/4
f 32/65/5 30/58/5 28/57/5 27/66/5
f 26/52/6 25/67/6 29/68/6 31/63/6
f 33/69/1 34/70/1 35/71/1 36/72/1
f 37/73/2 33/74/2 36/75/2 38/76/2
f 39/77/3 37/78/3 38/79/3 40/80/3
f 34/70/4 39/81/4 40/82/4 35/71/4
f 40/83/5 38/76/5 36/75/5 35/84/5
f 34/70/6 33/85/6 37/86/6 39/81/6
f 41/87/1 42/88/1 43/89/1 44/90/1
f 45/91/2 41/92/2 44/93/2 46/94/2
f 47/95/3 45/96/3 46/97/3 48/98/3
f 42/88/4 47/99/4 48/100/4 43/89/4
f 48/101/5 46/94/5 44/93/5 43/102/5
f 42/88/6 41/103/6 45/104/6 47/99/6
f 49/105/1 50/106/1 51/107/1 52/108/1
f 55/109/3 53/110/3 54/111/3 56/112/3
f 56/112/5 54/111/5 52/113/5 51/114/5
f 50/115/6 49/116/6 53/117/6 55/118/6
f 57/119/1 58/120/1 59/121/1 60/122/1
f 63/123/3 61/124/3 62/125/3 64/126/3
f 64/126/5 62/125/5 60/127/5 59/128/5
f 58/129/6 57/130/6 61/131/6 63/132/6
f 65/133/1 66/134/1 67/135/1 68/136/1
f 69/137/2 65/138/2 68/139/2 70/140/2
f 71/141/3 69/142/3 70/143/3 72/144/3
f 66/145/4 71/141/4 72/144/4 67/146/4
f 72/147/5 70/140/5 68/139/5 67/148/5
f 66/145/6 65/149/6 69/150/6 71/141/6
f 73/151/1 74/152/1 75/153/1 76/154/1
f 77/155/2 73/156/2 76/157/2 78/158/2
f 79/159/3 77/160/3 78/161/3 80/162/3
f 74/163/4 79/159/4 80/162/4 75/164/4
f 80/165/5 78/158/5 76/157/5 75/166/5
f 74/163/6 73/167/6 77/168/6 79/159/6
usemtl none.007
f 13/169/2 9/170/2 12/171/2 14/172/2
f 10/173/4 15/174/4 16/175/4 11/176/4
f 21/177/2 17/178/2 20/179/2 22/180/2
f 18/181/4 23/182/4 24/183/4 19/184/4
f 53/185/2 49/186/2 52/187/2 54/188/2
f 50/189/4 55/190/4 56/191/4 51/192/4
f 61/193/2 57/194/2 60/195/2 62/196/2
f 58/197/4 63/198/4 64/199/4 59/200/4
usemtl m_f82736cf-0d4e-93a6-74b9-db44c45f7d49.005
f 81/201/1 82/202/1 83/203/1 84/204/1
f 85/205/5 81/206/5 84/207/5 86/208/5
f 87/209/3 85/210/3 86/211/3 88/212/3
f 82/213/6 87/214/6 88/215/6 83/216/6
f 88/215/4 86/217/4 84/218/4 83/216/4
f 82/219/2 81/220/2 85/221/2 87/222/2
f 89/223/1 90/224/1 91/225/1 92/226/1
f 93/227/5 89/228/5 92/229/5 94/230/5
f 95/231/3 93/232/3 94/233/3 96/234/3
f 90/235/6 95/236/6 96/237/6 91/238/6
f 96/237/4 94/239/4 92/240/4 91/238/4
f 90/241/2 89/228/2 93/227/2 95/242/2
f 97/243/1 98/244/1 99/245/1 100/246/1
f 101/247/5 97/248/5 100/249/5 102/250/5
f 103/251/3 101/252/3 102/253/3 104/254/3
f 98/255/6 103/256/6 104/257/6 99/258/6
f 104/257/4 102/259/4 100/260/4 99/258/4
f 98/261/2 97/262/2 101/263/2 103/264/2
f 105/265/1 106/266/1 107/267/1 108/268/1
f 109/269/5 105/270/5 108/271/5 110/272/5
f 111/273/3 109/274/3 110/275/3 112/276/3
f 106/277/6 111/278/6 112/279/6 107/280/6
f 112/279/4 110/281/4 108/282/4 107/280/4
f 106/283/2 105/270/2 109/269/2 111/284/2
