# Blender v3.0.0 OBJ File: ''
# www.blender.org
mtllib driverod.mtl
o cube.319
v 1.437500 0.812560 -1.872274
v 1.437500 0.959775 1.499514
v 1.437500 1.084656 1.494062
v 1.437500 0.937441 -1.877726
v 1.562500 0.812560 -1.872274
v 1.562500 0.937441 -1.877726
v 1.562500 0.959775 1.499514
v 1.562500 1.084656 1.494062
v 1.437500 0.834894 1.504966
v 1.437500 0.851251 1.879610
v 1.437500 1.225894 1.863252
v 1.437500 1.209537 1.488609
v 1.562500 0.834894 1.504966
v 1.562500 1.209537 1.488609
v 1.562500 0.851251 1.879610
v 1.562500 1.225894 1.863252
v -1.562500 0.812560 -1.872274
v -1.562500 0.959775 1.499514
v -1.562500 1.084656 1.494062
v -1.562500 0.937441 -1.877726
v -1.437500 0.812560 -1.872274
v -1.437500 0.937441 -1.877726
v -1.437500 0.959775 1.499514
v -1.437500 1.084656 1.494062
v -1.562500 0.834894 1.504966
v -1.562500 0.851251 1.879610
v -1.562500 1.225894 1.863252
v -1.562500 1.209537 1.488609
v -1.437500 0.834894 1.504966
v -1.437500 1.209537 1.488609
v -1.437500 0.851251 1.879610
v -1.437500 1.225894 1.863252
vt 0.125000 0.968750
vt 0.968750 0.968750
vt 0.968750 1.000000
vt 0.125000 1.000000
vt 0.125000 0.937500
vt 0.968750 0.937500
vt 0.968750 0.968750
vt 0.125000 0.968750
vt 0.968750 0.937500
vt 0.125000 0.937500
vt 0.125000 0.968750
vt 0.968750 0.968750
vt 0.968750 1.000000
vt 0.125000 1.000000
vt 0.125000 0.906250
vt 0.031250 0.906250
vt 0.031250 1.000000
vt 0.125000 1.000000
vt 0.031250 0.906250
vt 0.000000 0.906250
vt 0.000000 1.000000
vt 0.031250 1.000000
vt 0.031250 0.906250
vt 0.125000 0.906250
vt 0.125000 1.000000
vt 0.031250 1.000000
vt 0.000000 0.906250
vt 0.000000 1.000000
vt 0.031250 0.906250
vt 0.000000 0.906250
vt 0.000000 1.000000
vt 0.031250 1.000000
vt 0.125000 0.937500
vt 0.968750 0.937500
vt 0.968750 0.968750
vt 0.125000 0.968750
vt 0.125000 1.000000
vt 0.968750 1.000000
vt 0.968750 0.968750
vt 0.125000 0.968750
vt 0.125000 0.937500
vt 0.968750 0.937500
vt 0.968750 0.968750
vt 0.125000 0.968750
vt 0.125000 0.968750
vt 0.968750 0.968750
vt 0.125000 0.906250
vt 0.031250 0.906250
vt 0.031250 1.000000
vt 0.125000 1.000000
vt 0.000000 0.906250
vt 0.031250 0.906250
vt 0.031250 1.000000
vt 0.000000 1.000000
vt 0.031250 0.906250
vt 0.125000 0.906250
vt 0.125000 1.000000
vt 0.031250 1.000000
vt 0.000000 0.906250
vt 0.000000 1.000000
vt 0.000000 0.906250
vt 0.031250 0.906250
vt 0.031250 1.000000
vt 0.000000 1.000000
vt 0.000000 0.875000
vt 0.125000 0.875000
vt 0.000000 1.000000
vt 0.000000 0.875000
vt 0.125000 0.875000
vt 0.125000 1.000000
vt 0.000000 1.000000
vt 0.000000 0.875000
vt 0.125000 0.875000
vt 0.125000 1.000000
vt 0.000000 1.000000
vt 0.000000 0.875000
vt 0.125000 0.875000
vt 0.125000 1.000000
vt 0.000000 1.000000
vn -1.0000 0.0000 0.0000
vn 1.0000 0.0000 0.0000
vn 0.0000 0.9990 -0.0436
vn 0.0000 -0.9990 0.0436
vn 0.0000 -0.0436 -0.9990
vn 0.0000 0.0436 0.9990
usemtl m_57c7429b-e50a-c1fa-1231-7be00e362f7d.006
s 1
f 1/1/1 2/2/1 3/3/1 4/4/1
f 7/5/2 5/6/2 6/7/2 8/8/2
f 8/8/3 6/7/3 4/9/3 3/10/3
f 2/11/4 1/12/4 5/13/4 7/14/4
f 9/15/1 10/16/1 11/17/1 12/18/1
f 13/19/5 9/20/5 12/21/5 14/22/5
f 15/23/2 13/24/2 14/25/2 16/26/2
f 10/27/6 15/23/6 16/26/6 11/28/6
f 16/29/3 14/22/3 12/21/3 11/30/3
f 10/27/4 9/31/4 13/32/4 15/23/4
f 17/33/1 18/34/1 19/35/1 20/36/1
f 23/37/2 21/38/2 22/39/2 24/40/2
f 24/41/3 22/42/3 20/43/3 19/44/3
f 18/45/4 17/46/4 21/38/4 23/37/4
f 25/47/1 26/48/1 27/49/1 28/50/1
f 29/51/5 25/52/5 28/53/5 30/54/5
f 31/55/2 29/56/2 30/57/2 32/58/2
f 26/48/6 31/59/6 32/60/6 27/49/6
f 32/61/3 30/54/3 28/53/3 27/62/3
f 26/48/4 25/63/4 29/64/4 31/59/4
usemtl none.006
f 5/65/5 1/66/5 4/4/5 6/67/5
f 2/68/6 7/69/6 8/70/6 3/71/6
f 21/72/5 17/73/5 20/74/5 22/75/5
f 18/76/6 23/77/6 24/78/6 19/79/6
