# Blender v3.0.0 OBJ File: ''
# www.blender.org
mtllib drivepin.mtl
o cube.269
v 1.431250 0.687500 -2.125000
v 1.431250 0.687500 -1.750000
v 1.431250 1.062500 -1.750000
v 1.431250 1.062500 -2.125000
v 1.568750 0.687500 -2.125000
v 1.568750 1.062500 -2.125000
v 1.568750 0.687500 -1.750000
v 1.568750 1.062500 -1.750000
v -1.568750 0.687500 -2.125000
v -1.568750 0.687500 -1.750000
v -1.568750 1.062500 -1.750000
v -1.568750 1.062500 -2.125000
v -1.431250 0.687500 -2.125000
v -1.431250 1.062500 -2.125000
v -1.431250 0.687500 -1.750000
v -1.431250 1.062500 -1.750000
v -1.631250 0.812500 -2.000000
v -1.631250 0.812500 -1.875000
v -1.631250 0.937500 -1.875000
v -1.631250 0.937500 -2.000000
v -1.368750 0.812500 -2.000000
v -1.368750 0.937500 -2.000000
v -1.368750 0.812500 -1.875000
v -1.368750 0.937500 -1.875000
v 1.375000 0.812500 -2.000000
v 1.375000 0.812500 -1.875000
v 1.375000 0.937500 -1.875000
v 1.375000 0.937500 -2.000000
v 1.625000 0.812500 -2.000000
v 1.625000 0.937500 -2.000000
v 1.625000 0.812500 -1.875000
v 1.625000 0.937500 -1.875000
vt 0.125000 0.906250
vt 0.031250 0.906250
vt 0.031250 1.000000
vt 0.125000 1.000000
vt 0.028125 0.906250
vt 0.000000 0.906250
vt 0.000000 1.000000
vt 0.028125 1.000000
vt 0.031250 0.906250
vt 0.125000 0.906250
vt 0.125000 1.000000
vt 0.031250 1.000000
vt 0.000000 0.906250
vt 0.028125 0.906250
vt 0.028125 1.000000
vt 0.000000 1.000000
vt 0.028125 0.906250
vt 0.000000 0.906250
vt 0.000000 1.000000
vt 0.028125 1.000000
vt 0.125000 0.906250
vt 0.031250 0.906250
vt 0.031250 1.000000
vt 0.125000 1.000000
vt 0.000000 0.906250
vt 0.031250 0.906250
vt 0.031250 1.000000
vt 0.000000 1.000000
vt 0.031250 0.906250
vt 0.125000 0.906250
vt 0.125000 1.000000
vt 0.031250 1.000000
vt 0.000000 0.906250
vt 0.000000 1.000000
vt 0.000000 0.906250
vt 0.031250 0.906250
vt 0.031250 1.000000
vt 0.000000 1.000000
vt 0.968750 0.312500
vt 0.906250 0.312500
vt 0.906250 0.375000
vt 0.968750 0.375000
vt 0.906250 0.312500
vt 0.906250 0.187500
vt 0.968750 0.187500
vt 0.968750 0.312500
vt 0.906250 0.312500
vt 0.968750 0.312500
vt 0.968750 0.375000
vt 0.906250 0.375000
vt 0.156250 0.812500
vt 0.281250 0.812500
vt 0.281250 0.875000
vt 0.156250 0.875000
vt 0.281250 0.812500
vt 0.281250 0.875000
vt 0.156250 0.875000
vt 0.156250 0.812500
vt 0.906250 0.187500
vt 0.968750 0.187500
vt 0.968750 0.312500
vt 0.906250 0.312500
vt 0.906250 0.375000
vt 0.968750 0.375000
vt 0.906250 0.312500
vt 0.906250 0.187500
vt 0.968750 0.187500
vt 0.968750 0.312500
vt 0.906250 0.312500
vt 0.968750 0.312500
vt 0.968750 0.375000
vt 0.906250 0.375000
vt 0.156250 0.812500
vt 0.281250 0.812500
vt 0.281250 0.875000
vt 0.156250 0.875000
vt 0.281250 0.812500
vt 0.281250 0.875000
vt 0.156250 0.875000
vt 0.156250 0.812500
vt 0.906250 0.187500
vt 0.968750 0.187500
vn -1.0000 0.0000 0.0000
vn 0.0000 0.0000 -1.0000
vn 1.0000 0.0000 0.0000
vn 0.0000 0.0000 1.0000
vn 0.0000 1.0000 0.0000
vn 0.0000 -1.0000 -0.0000
usemtl m_57c7429b-e50a-c1fa-1231-7be00e362f7d.005
s 1
f 1/1/1 2/2/1 3/3/1 4/4/1
f 5/5/2 1/6/2 4/7/2 6/8/2
f 7/9/3 5/10/3 6/11/3 8/12/3
f 2/13/4 7/14/4 8/15/4 3/16/4
f 8/17/5 6/8/5 4/7/5 3/18/5
f 2/13/6 1/19/6 5/20/6 7/14/6
f 9/21/1 10/22/1 11/23/1 12/24/1
f 13/25/2 9/26/2 12/27/2 14/28/2
f 15/29/3 13/30/3 14/31/3 16/32/3
f 10/22/4 15/33/4 16/34/4 11/23/4
f 16/35/5 14/28/5 12/27/5 11/36/5
f 10/22/6 9/37/6 13/38/6 15/33/6
usemtl m_f82736cf-0d4e-93a6-74b9-db44c45f7d49.004
f 17/39/1 18/40/1 19/41/1 20/42/1
f 21/43/2 17/44/2 20/45/2 22/46/2
f 23/47/3 21/48/3 22/49/3 24/50/3
f 18/51/4 23/52/4 24/53/4 19/54/4
f 24/55/5 22/56/5 20/57/5 19/58/5
f 18/59/6 17/60/6 21/48/6 23/47/6
f 25/61/1 26/62/1 27/63/1 28/64/1
f 29/65/2 25/66/2 28/67/2 30/68/2
f 31/69/3 29/70/3 30/71/3 32/72/3
f 26/73/4 31/74/4 32/75/4 27/76/4
f 32/77/5 30/78/5 28/79/5 27/80/5
f 26/81/6 25/82/6 29/70/6 31/69/6
