# Blender v3.0.0 OBJ File: ''
# www.blender.org
mtllib eccentricrod.mtl
o cube.054
v 1.750000 0.700318 0.735755
v 1.750000 0.577217 0.757461
v 1.750000 0.750865 1.742269
v 1.750000 0.873966 1.720563
v 1.812500 0.700318 0.735755
v 1.812500 0.873966 1.720563
v 1.812500 0.577217 0.757461
v 1.812500 0.750865 1.742269
v 1.687500 0.836018 1.663790
v 1.687500 0.795060 1.635111
v 1.687500 0.766381 1.676069
v 1.687500 0.807339 1.704748
v 1.875000 0.836018 1.663790
v 1.875000 0.807339 1.704748
v 1.875000 0.795060 1.635111
v 1.875000 0.766381 1.676069
v 1.687500 0.674969 0.771957
v 1.687500 0.613418 0.782810
v 1.687500 0.624271 0.844361
v 1.687500 0.685822 0.833508
v 1.875000 0.674969 0.771957
v 1.875000 0.685822 0.833508
v 1.875000 0.613418 0.782810
v 1.875000 0.624271 0.844361
v -1.875000 0.836018 1.663790
v -1.875000 0.795060 1.635111
v -1.875000 0.766381 1.676069
v -1.875000 0.807339 1.704748
v -1.687500 0.836018 1.663790
v -1.687500 0.807339 1.704748
v -1.687500 0.795060 1.635111
v -1.687500 0.766381 1.676069
v -1.812500 0.700318 0.735755
v -1.812500 0.577217 0.757461
v -1.812500 0.750865 1.742269
v -1.812500 0.873966 1.720563
v -1.750000 0.700318 0.735755
v -1.750000 0.873966 1.720563
v -1.750000 0.577217 0.757461
v -1.750000 0.750865 1.742269
v -1.875000 0.674969 0.771957
v -1.875000 0.613418 0.782810
v -1.875000 0.624271 0.844361
v -1.875000 0.685822 0.833508
v -1.687500 0.674969 0.771957
v -1.687500 0.685822 0.833508
v -1.687500 0.613418 0.782810
v -1.687500 0.624271 0.844361
vt 0.500000 0.750000
vt 0.500000 0.718750
vt 0.250000 0.718750
vt 0.250000 0.750000
vt 0.500000 0.734375
vt 0.250000 0.734375
vt 0.500000 0.718750
vt 0.500000 0.750000
vt 0.250000 0.750000
vt 0.250000 0.718750
vt 0.250000 0.703125
vt 0.500000 0.703125
vt 0.500000 0.718750
vt 0.265625 0.718750
vt 0.265625 0.750000
vt 0.265625 0.718750
vt 0.265625 0.750000
vt 0.250000 0.750000
vt 0.250000 0.718750
vt 0.500000 0.750000
vt 0.500000 0.718750
vt 0.250000 0.718750
vt 0.250000 0.750000
vt 0.500000 0.734375
vt 0.250000 0.734375
vt 0.500000 0.718750
vt 0.500000 0.750000
vt 0.250000 0.750000
vt 0.250000 0.718750
vt 0.500000 0.703125
vt 0.250000 0.703125
vt 0.265625 0.718750
vt 0.265625 0.750000
vt 0.265625 0.718750
vt 0.265625 0.750000
vt 0.250000 0.750000
vt 0.250000 0.718750
vt 0.000000 0.950000
vt 0.050000 0.950000
vt 0.050000 1.000000
vt 0.000000 1.000000
vt 0.393750 0.875000
vt 0.393750 0.906250
vt 0.312500 0.906250
vt 0.312500 0.875000
vt 0.500000 0.887500
vt 0.550000 0.887500
vt 0.550000 0.937500
vt 0.500000 0.937500
vt 0.393750 0.906250
vt 0.393750 0.875000
vt 0.312500 0.875000
vt 0.312500 0.906250
vt 0.393750 0.875000
vt 0.393750 0.906250
vt 0.312500 0.875000
vt 0.393750 0.875000
vt 0.393750 0.906250
vt 0.312500 0.906250
vt 0.937500 0.281250
vt 0.968750 0.281250
vt 0.968750 0.312500
vt 0.937500 0.312500
vt 0.968750 0.250000
vt 0.968750 0.156250
vt 0.937500 0.156250
vt 0.937500 0.250000
vt 0.937500 0.218750
vt 0.968750 0.218750
vt 0.968750 0.250000
vt 0.937500 0.250000
vt 0.968750 0.218750
vt 0.968750 0.312500
vt 0.937500 0.312500
vt 0.937500 0.218750
vt 0.937500 0.218750
vt 0.968750 0.218750
vt 0.968750 0.312500
vt 0.937500 0.312500
vt 0.937500 0.218750
vt 0.937500 0.312500
vt 0.343750 0.875000
vt 0.343750 0.906250
vt 0.312500 0.906250
vt 0.312500 0.875000
vt 0.343750 0.875000
vt 0.343750 0.906250
vt 0.312500 0.906250
vt 0.312500 0.875000
vt 0.343750 0.875000
vt 0.343750 0.906250
vt 0.312500 0.906250
vt 0.312500 0.875000
vt 0.343750 0.875000
vt 0.343750 0.906250
vt 0.312500 0.906250
vt 0.312500 0.875000
vt 0.343750 0.875000
vt 0.343750 0.906250
vt 0.312500 0.906250
vt 0.312500 0.875000
vt 0.937500 0.281250
vt 0.968750 0.281250
vt 0.968750 0.312500
vt 0.937500 0.312500
vt 0.968750 0.250000
vt 0.968750 0.156250
vt 0.937500 0.156250
vt 0.937500 0.250000
vt 0.937500 0.218750
vt 0.968750 0.218750
vt 0.968750 0.250000
vt 0.937500 0.250000
vt 0.968750 0.218750
vt 0.968750 0.312500
vt 0.937500 0.312500
vt 0.937500 0.218750
vt 0.937500 0.218750
vt 0.968750 0.218750
vt 0.968750 0.312500
vt 0.937500 0.312500
vt 0.937500 0.218750
vt 0.937500 0.312500
vn -1.0000 0.0000 0.0000
vn 0.0000 0.9848 -0.1736
vn 1.0000 -0.0000 0.0000
vn 0.0000 -0.9848 0.1736
vn 0.0000 0.1736 0.9848
vn 0.0000 -0.1736 -0.9848
vn 0.0000 0.8192 0.5736
vn 0.0000 -0.8192 -0.5736
vn 0.0000 -0.5736 0.8192
vn 0.0000 0.5736 -0.8192
usemtl m_57c7429b-e50a-c1fa-1231-7be00e362f7d.001
s 1
f 1/1/1 2/2/1 3/3/1 4/4/1
f 5/5/2 1/1/2 4/4/2 6/6/2
f 7/7/3 5/8/3 6/9/3 8/10/3
f 2/11/4 7/12/4 8/13/4 3/3/4
f 8/14/5 6/15/5 4/4/5 3/3/5
f 2/16/6 1/17/6 5/18/6 7/19/6
f 33/20/1 34/21/1 35/22/1 36/23/1
f 37/24/2 33/20/2 36/23/2 38/25/2
f 39/26/3 37/27/3 38/28/3 40/29/3
f 34/30/4 39/26/4 40/29/4 35/31/4
f 40/32/5 38/33/5 36/23/5 35/22/5
f 34/34/6 33/35/6 37/36/6 39/37/6
usemtl none.001
f 9/38/1 10/39/1 11/40/1 12/41/1
usemtl m_f82736cf-0d4e-93a6-74b9-db44c45f7d49.001
f 13/42/7 9/43/7 12/44/7 14/45/7
f 15/46/3 13/47/3 14/48/3 16/49/3
f 10/50/8 15/51/8 16/52/8 11/53/8
f 16/52/9 14/54/9 12/55/9 11/53/9
f 10/56/10 9/57/10 13/58/10 15/59/10
f 17/60/1 18/61/1 19/62/1 20/63/1
f 21/64/2 17/65/2 20/66/2 22/67/2
f 23/68/3 21/69/3 22/70/3 24/71/3
f 18/72/4 23/73/4 24/74/4 19/75/4
f 24/76/5 22/77/5 20/78/5 19/79/5
f 18/72/6 17/80/6 21/81/6 23/73/6
f 25/82/1 26/83/1 27/84/1 28/85/1
f 29/86/7 25/87/7 28/88/7 30/89/7
f 31/90/3 29/91/3 30/92/3 32/93/3
f 26/94/8 31/95/8 32/96/8 27/97/8
f 32/98/9 30/99/9 28/88/9 27/97/9
f 26/94/10 25/87/10 29/100/10 31/101/10
f 41/102/1 42/103/1 43/104/1 44/105/1
f 45/106/2 41/107/2 44/108/2 46/109/2
f 47/110/3 45/111/3 46/112/3 48/113/3
f 42/114/4 47/115/4 48/116/4 43/117/4
f 48/118/5 46/119/5 44/120/5 43/121/5
f 42/114/6 41/122/6 45/123/6 47/115/6
