# Blender v3.0.0 OBJ File: ''
# www.blender.org
mtllib frame.mtl
o cube.016
v 0.187500 1.250000 -2.187500
v -0.187500 1.250000 -2.187500
v -0.187500 1.500000 -2.187500
v 0.187500 1.500000 -2.187500
v 0.187500 1.250000 -1.812500
v 0.187500 1.500000 -1.812500
v -0.187500 1.250000 -1.812500
v -0.187500 1.500000 -1.812500
v 0.687500 0.875000 -0.750000
v 0.503181 0.875000 -0.918897
v 0.503181 0.937500 -0.918897
v 0.687500 0.937500 -0.750000
v 0.011910 0.875000 -0.012723
v 0.011910 0.937500 -0.012723
v -0.172410 0.875000 -0.181620
v -0.172410 0.937500 -0.181620
v 0.312500 0.500001 -3.187500
v -0.312500 0.500001 -3.187500
v -0.312500 0.875001 -3.187500
v 0.312500 0.875001 -3.187500
v 0.312500 0.500000 -2.812500
v 0.312500 0.875000 -2.812500
v -0.312500 0.500000 -2.812500
v -0.312500 0.875000 -2.812500
v -0.375000 0.375001 -3.250000
v -0.750000 0.375001 -3.250000
v -0.750000 1.000000 -3.250000
v -0.375000 1.000000 -3.250000
v -0.375000 0.375000 -2.750000
v -0.375000 1.000000 -2.750000
v -0.750000 0.375000 -2.750000
v -0.750000 1.000000 -2.750000
v 0.750000 0.375001 -3.250000
v 0.375000 0.375001 -3.250000
v 0.375000 1.000000 -3.250000
v 0.750000 1.000000 -3.250000
v 0.750000 0.375000 -2.750000
v 0.750000 1.000000 -2.750000
v 0.375000 0.375000 -2.750000
v 0.375000 1.000000 -2.750000
v 0.750000 0.375000 -1.250000
v 0.375000 0.375000 -1.250000
v 0.375000 1.000000 -1.250000
v 0.750000 1.000000 -1.250000
v 0.750000 0.375000 -0.750000
v 0.750000 1.000000 -0.750000
v 0.375000 0.375000 -0.750000
v 0.375000 1.000000 -0.750000
v -0.375000 0.375000 -1.250000
v -0.750000 0.375000 -1.250000
v -0.750000 1.000000 -1.250000
v -0.375000 1.000000 -1.250000
v -0.375000 0.375000 -0.750000
v -0.375000 1.000000 -0.750000
v -0.750000 0.375000 -0.750000
v -0.750000 1.000000 -0.750000
v -0.687500 0.875000 -3.000000
v -0.687500 0.875000 -0.750000
v -0.687500 0.937500 -0.750000
v -0.687500 0.937500 -3.000000
v -0.437500 0.875000 -3.000000
v -0.437500 0.937500 -3.000000
v -0.437500 0.875000 -0.750000
v -0.437500 0.937500 -0.750000
v -0.687500 0.437501 -3.062500
v -0.687500 0.437500 -0.812500
v -0.687500 0.500000 -0.812500
v -0.687500 0.500000 -3.062500
v -0.437500 0.437501 -3.062500
v -0.437500 0.500000 -3.062500
v -0.437500 0.437500 -0.812500
v -0.437500 0.500000 -0.812500
v 0.312500 0.500000 -1.187500
v -0.312500 0.500000 -1.187500
v -0.312500 0.875000 -1.187500
v 0.312500 0.875000 -1.187500
v 0.312500 0.500000 -0.812500
v 0.312500 0.875000 -0.812500
v -0.312500 0.500000 -0.812500
v -0.312500 0.875000 -0.812500
v 0.437500 0.875000 -2.437500
v -0.437500 0.875000 -2.437500
v -0.437500 0.937500 -2.437500
v 0.437500 0.937500 -2.437500
v 0.437500 0.875000 -1.562500
v 0.437500 0.937500 -1.562500
v -0.437500 0.875000 -1.562500
v -0.437500 0.937500 -1.562500
v -0.437500 0.562501 -3.125000
v -0.687500 0.562501 -3.125000
v -0.687500 0.812501 -3.125000
v -0.437500 0.812501 -3.125000
v -0.437500 0.562500 -0.875000
v -0.437500 0.812500 -0.875000
v -0.687500 0.562500 -0.875000
v -0.687500 0.812500 -0.875000
v 0.687500 0.562501 -3.125000
v 0.437500 0.562501 -3.125000
v 0.437500 0.812501 -3.125000
v 0.687500 0.812501 -3.125000
v 0.687500 0.562500 -0.875000
v 0.687500 0.812500 -0.875000
v 0.437500 0.562500 -0.875000
v 0.437500 0.812500 -0.875000
v 0.437500 0.875000 -3.000000
v 0.437500 0.875000 -0.750000
v 0.437500 0.937500 -0.750000
v 0.437500 0.937500 -3.000000
v 0.687500 0.875000 -3.000000
v 0.687500 0.937500 -3.000000
v 0.687500 0.875000 -0.750000
v 0.687500 0.937500 -0.750000
v 0.437500 0.437501 -3.062500
v 0.437500 0.437500 -0.812500
v 0.437500 0.500000 -0.812500
v 0.437500 0.500000 -3.062500
v 0.687500 0.437501 -3.062500
v 0.687500 0.500000 -3.062500
v 0.687500 0.437500 -0.812500
v 0.687500 0.500000 -0.812500
v 0.000000 0.812500 -0.353553
v -0.353553 0.812500 0.000000
v -0.353553 1.000000 0.000000
v 0.000000 1.000000 -0.353553
v 0.353553 0.812500 0.000000
v 0.353553 1.000000 0.000000
v 0.000000 0.812500 0.353554
v 0.000000 1.000000 0.353554
v -0.503181 0.875000 -0.918897
v -0.687500 0.875000 -0.750000
v -0.687500 0.937500 -0.750000
v -0.503181 0.937500 -0.918897
v 0.172410 0.875000 -0.181620
v 0.172410 0.937500 -0.181620
v -0.011910 0.875000 -0.012723
v -0.011910 0.937500 -0.012723
v 0.125000 0.750000 -2.125000
v -0.125000 0.750000 -2.125000
v -0.125000 1.437500 -2.125000
v 0.125000 1.437500 -2.125000
v 0.125000 0.750000 -1.875000
v 0.125000 1.437500 -1.875000
v -0.125000 0.750000 -1.875000
v -0.125000 1.437500 -1.875000
vt 0.000000 0.437500
vt 0.187500 0.437500
vt 0.187500 0.562500
vt 0.000000 0.562500
vt 0.531250 0.562500
vt 0.718750 0.562500
vt 0.718750 0.687500
vt 0.531250 0.687500
vt 0.000000 0.437500
vt 0.187500 0.437500
vt 0.187500 0.562500
vt 0.000000 0.562500
vt 0.531250 0.562500
vt 0.718750 0.562500
vt 0.718750 0.687500
vt 0.531250 0.687500
vt 0.187500 1.000000
vt 0.000000 1.000000
vt 0.000000 0.812500
vt 0.187500 0.812500
vt 0.187500 0.812500
vt 0.000000 0.812500
vt 0.000000 1.000000
vt 0.187500 1.000000
vt 0.218750 0.656250
vt 0.343750 0.656250
vt 0.343750 1.000000
vt 0.218750 1.000000
vt 0.218750 0.656250
vt 0.343750 0.656250
vt 0.343750 1.000000
vt 0.218750 1.000000
vt 0.218750 0.656250
vt 0.343750 0.656250
vt 0.343750 1.000000
vt 0.218750 1.000000
vt 0.218750 0.656250
vt 0.343750 0.656250
vt 0.343750 1.000000
vt 0.218750 1.000000
vt 0.656250 0.531250
vt 0.531250 0.531250
vt 0.531250 0.406250
vt 0.656250 0.406250
vt 0.343750 0.312500
vt 0.218750 0.312500
vt 0.218750 0.437500
vt 0.343750 0.437500
vt 0.460938 0.773438
vt 0.492188 0.773438
vt 0.492188 0.781250
vt 0.460938 0.781250
vt 0.656250 0.992188
vt 0.781250 0.992188
vt 0.781250 1.000000
vt 0.656250 1.000000
vt 0.515625 0.625000
vt 0.546875 0.625000
vt 0.546875 0.632812
vt 0.515625 0.632812
vt 0.656250 0.992188
vt 0.781250 0.992188
vt 0.781250 1.000000
vt 0.656250 1.000000
vt 0.507812 0.914062
vt 0.476562 0.914062
vt 0.476562 0.789062
vt 0.507812 0.789062
vt 0.187500 0.398438
vt 0.156250 0.398438
vt 0.156250 0.523438
vt 0.187500 0.523438
vt 0.343750 0.476562
vt 0.421875 0.476562
vt 0.421875 0.523438
vt 0.343750 0.523438
vt 0.601562 0.640625
vt 0.648438 0.640625
vt 0.648438 0.687500
vt 0.601562 0.687500
vt 0.343750 0.476562
vt 0.421875 0.476562
vt 0.421875 0.523438
vt 0.343750 0.523438
vt 0.601562 0.640625
vt 0.648438 0.640625
vt 0.648438 0.687500
vt 0.601562 0.687500
vt 0.585938 0.617188
vt 0.507812 0.617188
vt 0.507812 0.570312
vt 0.585938 0.570312
vt 0.593750 0.867188
vt 0.515625 0.867188
vt 0.515625 0.914062
vt 0.593750 0.914062
vt 0.515625 0.781250
vt 0.562500 0.781250
vt 0.562500 0.859375
vt 0.515625 0.859375
vt 0.226562 0.531250
vt 0.289062 0.531250
vt 0.289062 0.609375
vt 0.226562 0.609375
vt 0.515625 0.484375
vt 0.562500 0.484375
vt 0.562500 0.562500
vt 0.515625 0.562500
vt 0.226562 0.531250
vt 0.289062 0.531250
vt 0.289062 0.609375
vt 0.226562 0.609375
vt 0.242188 0.453125
vt 0.195312 0.453125
vt 0.195312 0.390625
vt 0.242188 0.390625
vt 0.617188 0.390625
vt 0.570312 0.390625
vt 0.570312 0.453125
vt 0.617188 0.453125
vt 0.515625 0.781250
vt 0.562500 0.781250
vt 0.562500 0.859375
vt 0.515625 0.859375
vt 0.226562 0.531250
vt 0.289062 0.531250
vt 0.289062 0.609375
vt 0.226562 0.609375
vt 0.515625 0.484375
vt 0.562500 0.484375
vt 0.562500 0.562500
vt 0.515625 0.562500
vt 0.226562 0.531250
vt 0.289062 0.531250
vt 0.289062 0.609375
vt 0.226562 0.609375
vt 0.242188 0.453125
vt 0.195312 0.453125
vt 0.195312 0.390625
vt 0.242188 0.390625
vt 0.617188 0.390625
vt 0.570312 0.390625
vt 0.570312 0.453125
vt 0.617188 0.453125
vt 0.453125 0.390625
vt 0.500000 0.390625
vt 0.500000 0.468750
vt 0.453125 0.468750
vt 0.476562 0.921875
vt 0.539062 0.921875
vt 0.539062 1.000000
vt 0.476562 1.000000
vt 0.546875 0.921875
vt 0.593750 0.921875
vt 0.593750 1.000000
vt 0.546875 1.000000
vt 0.406250 0.835938
vt 0.468750 0.835938
vt 0.468750 0.914062
vt 0.406250 0.914062
vt 0.101562 0.398438
vt 0.054688 0.398438
vt 0.054688 0.335938
vt 0.101562 0.335938
vt 0.648438 0.867188
vt 0.601562 0.867188
vt 0.601562 0.929688
vt 0.648438 0.929688
vt 0.453125 0.390625
vt 0.500000 0.390625
vt 0.500000 0.468750
vt 0.453125 0.468750
vt 0.476562 0.921875
vt 0.539062 0.921875
vt 0.539062 1.000000
vt 0.476562 1.000000
vt 0.546875 0.921875
vt 0.593750 0.921875
vt 0.593750 1.000000
vt 0.546875 1.000000
vt 0.476562 0.921875
vt 0.539062 0.921875
vt 0.539062 1.000000
vt 0.476562 1.000000
vt 0.046875 0.390625
vt 0.000000 0.390625
vt 0.000000 0.328125
vt 0.046875 0.328125
vt 0.156250 0.328125
vt 0.109375 0.328125
vt 0.109375 0.390625
vt 0.156250 0.390625
vt 0.570312 0.796875
vt 0.851562 0.796875
vt 0.851562 0.804688
vt 0.570312 0.804688
vt 0.554688 0.625000
vt 0.585938 0.625000
vt 0.585938 0.632812
vt 0.554688 0.632812
vt 0.570312 0.796875
vt 0.851562 0.796875
vt 0.851562 0.804688
vt 0.570312 0.804688
vt 0.656250 0.687500
vt 0.687500 0.687500
vt 0.687500 0.695312
vt 0.656250 0.695312
vt 0.398438 1.000000
vt 0.117188 1.000000
vt 0.117188 0.968750
vt 0.398438 0.968750
vt 0.398438 0.929688
vt 0.117188 0.929688
vt 0.117188 0.960938
vt 0.398438 0.960938
vt 0.164062 0.375000
vt 0.445312 0.375000
vt 0.445312 0.382812
vt 0.164062 0.382812
vt 0.656250 0.671875
vt 0.687500 0.671875
vt 0.687500 0.679688
vt 0.656250 0.679688
vt 0.132812 0.375000
vt 0.414062 0.375000
vt 0.414062 0.382812
vt 0.132812 0.382812
vt 0.656250 0.656250
vt 0.687500 0.656250
vt 0.687500 0.664062
vt 0.656250 0.664062
vt 0.398438 0.921875
vt 0.117188 0.921875
vt 0.117188 0.890625
vt 0.398438 0.890625
vt 0.398438 0.851562
vt 0.117188 0.851562
vt 0.117188 0.882812
vt 0.398438 0.882812
vt 0.515625 0.640625
vt 0.593750 0.640625
vt 0.593750 0.687500
vt 0.515625 0.687500
vt 0.164062 0.320312
vt 0.210938 0.320312
vt 0.210938 0.367188
vt 0.164062 0.367188
vt 0.515625 0.640625
vt 0.593750 0.640625
vt 0.593750 0.687500
vt 0.515625 0.687500
vt 0.164062 0.320312
vt 0.210938 0.320312
vt 0.210938 0.367188
vt 0.164062 0.367188
vt 0.648438 0.562500
vt 0.570312 0.562500
vt 0.570312 0.515625
vt 0.648438 0.515625
vt 0.648438 0.460938
vt 0.570312 0.460938
vt 0.570312 0.507812
vt 0.648438 0.507812
vt 0.656250 0.750000
vt 0.765625 0.750000
vt 0.765625 0.757812
vt 0.656250 0.757812
vt 0.656250 0.703125
vt 0.765625 0.703125
vt 0.765625 0.710938
vt 0.656250 0.710938
vt 0.656250 0.750000
vt 0.765625 0.750000
vt 0.765625 0.757812
vt 0.656250 0.757812
vt 0.656250 0.703125
vt 0.765625 0.703125
vt 0.765625 0.710938
vt 0.656250 0.710938
vt 0.109375 1.000000
vt 0.000000 1.000000
vt 0.000000 0.890625
vt 0.109375 0.890625
vt 0.109375 0.773438
vt 0.000000 0.773438
vt 0.000000 0.882812
vt 0.109375 0.882812
vt 0.656250 0.953125
vt 0.687500 0.953125
vt 0.687500 0.984375
vt 0.656250 0.984375
vt 0.117188 0.773438
vt 0.398438 0.773438
vt 0.398438 0.804688
vt 0.117188 0.804688
vt 0.656250 0.914062
vt 0.687500 0.914062
vt 0.687500 0.945312
vt 0.656250 0.945312
vt 0.117188 0.773438
vt 0.398438 0.773438
vt 0.398438 0.804688
vt 0.117188 0.804688
vt 0.031250 0.765625
vt 0.000000 0.765625
vt 0.000000 0.484375
vt 0.031250 0.484375
vt 0.070312 0.484375
vt 0.039062 0.484375
vt 0.039062 0.765625
vt 0.070312 0.765625
vt 0.656250 0.875000
vt 0.687500 0.875000
vt 0.687500 0.906250
vt 0.656250 0.906250
vt 0.078125 0.695312
vt 0.359375 0.695312
vt 0.359375 0.726562
vt 0.078125 0.726562
vt 0.656250 0.835938
vt 0.687500 0.835938
vt 0.687500 0.867188
vt 0.656250 0.867188
vt 0.078125 0.695312
vt 0.359375 0.695312
vt 0.359375 0.726562
vt 0.078125 0.726562
vt 0.109375 0.687500
vt 0.078125 0.687500
vt 0.078125 0.406250
vt 0.109375 0.406250
vt 0.148438 0.406250
vt 0.117188 0.406250
vt 0.117188 0.687500
vt 0.148438 0.687500
vt 0.570312 0.796875
vt 0.851562 0.796875
vt 0.851562 0.804688
vt 0.570312 0.804688
vt 0.656250 0.640625
vt 0.687500 0.640625
vt 0.687500 0.648438
vt 0.656250 0.648438
vt 0.570312 0.796875
vt 0.851562 0.796875
vt 0.851562 0.804688
vt 0.570312 0.804688
vt 0.656250 0.562500
vt 0.687500 0.562500
vt 0.687500 0.570312
vt 0.656250 0.570312
vt 0.437500 0.687500
vt 0.156250 0.687500
vt 0.156250 0.656250
vt 0.437500 0.656250
vt 0.437500 0.617188
vt 0.156250 0.617188
vt 0.156250 0.648438
vt 0.437500 0.648438
vt 0.507812 0.359375
vt 0.789062 0.359375
vt 0.789062 0.367188
vt 0.507812 0.367188
vt 0.656250 0.546875
vt 0.687500 0.546875
vt 0.687500 0.554688
vt 0.656250 0.554688
vt 0.476562 0.359375
vt 0.757812 0.359375
vt 0.757812 0.367188
vt 0.476562 0.367188
vt 0.656250 0.531250
vt 0.687500 0.531250
vt 0.687500 0.539062
vt 0.656250 0.539062
vt 0.398438 0.921875
vt 0.117188 0.921875
vt 0.117188 0.890625
vt 0.398438 0.890625
vt 0.398438 0.851562
vt 0.117188 0.851562
vt 0.117188 0.882812
vt 0.398438 0.882812
vt 0.648438 0.609375
vt 0.710938 0.609375
vt 0.710938 0.632812
vt 0.648438 0.632812
vt 0.648438 0.578125
vt 0.710938 0.578125
vt 0.710938 0.601562
vt 0.648438 0.601562
vt 0.648438 0.609375
vt 0.710938 0.609375
vt 0.710938 0.632812
vt 0.648438 0.632812
vt 0.648438 0.578125
vt 0.710938 0.578125
vt 0.710938 0.601562
vt 0.648438 0.601562
vt 0.507812 0.687500
vt 0.445312 0.687500
vt 0.445312 0.625000
vt 0.507812 0.625000
vt 0.257812 0.460938
vt 0.195312 0.460938
vt 0.195312 0.523438
vt 0.257812 0.523438
vt 0.656250 0.515625
vt 0.687500 0.515625
vt 0.687500 0.523438
vt 0.656250 0.523438
vt 0.656250 0.765625
vt 0.781250 0.765625
vt 0.781250 0.773438
vt 0.656250 0.773438
vt 0.656250 0.500000
vt 0.687500 0.500000
vt 0.687500 0.507812
vt 0.656250 0.507812
vt 0.656250 0.765625
vt 0.781250 0.765625
vt 0.781250 0.773438
vt 0.656250 0.773438
vt 0.296875 0.523438
vt 0.265625 0.523438
vt 0.265625 0.398438
vt 0.296875 0.398438
vt 0.335938 0.398438
vt 0.304688 0.398438
vt 0.304688 0.523438
vt 0.335938 0.523438
vn 0.0000 0.0000 -1.0000
vn 1.0000 0.0000 0.0000
vn 0.0000 0.0000 1.0000
vn -1.0000 0.0000 0.0000
vn 0.0000 1.0000 0.0000
vn 0.0000 -1.0000 -0.0000
vn 0.6756 0.0000 -0.7373
vn 0.7373 0.0000 0.6756
vn -0.6756 -0.0000 0.7373
vn -0.7373 0.0000 -0.6756
vn -0.7071 0.0000 -0.7071
vn 0.7071 0.0000 -0.7071
vn 0.7071 -0.0000 0.7071
vn -0.7071 -0.0000 0.7071
vn -0.6756 0.0000 -0.7373
vn 0.7373 0.0000 -0.6756
vn 0.6756 -0.0000 0.7373
vn -0.7373 0.0000 0.6756
usemtl m_1646b28e-47f0-3706-529b-110a336dff50
s 1
f 1/1/1 2/2/1 3/3/1 4/4/1
f 5/5/2 1/6/2 4/7/2 6/8/2
f 7/9/3 5/10/3 6/11/3 8/12/3
f 2/13/4 7/14/4 8/15/4 3/16/4
f 8/17/5 6/18/5 4/19/5 3/20/5
f 2/21/6 1/22/6 5/23/6 7/24/6
f 137/25/1 138/26/1 139/27/1 140/28/1
f 141/29/2 137/30/2 140/31/2 142/32/2
f 143/33/3 141/34/3 142/35/3 144/36/3
f 138/37/4 143/38/4 144/39/4 139/40/4
f 144/41/5 142/42/5 140/43/5 139/44/5
f 138/45/6 137/46/6 141/47/6 143/48/6
usemtl m_599978e2-eac0-f248-498a-dfd140abba20
f 9/49/7 10/50/7 11/51/7 12/52/7
f 13/53/8 9/54/8 12/55/8 14/56/8
f 15/57/9 13/58/9 14/59/9 16/60/9
f 10/61/10 15/62/10 16/63/10 11/64/10
f 16/65/5 14/66/5 12/67/5 11/68/5
f 10/69/6 9/70/6 13/71/6 15/72/6
f 17/73/1 18/74/1 19/75/1 20/76/1
f 21/77/2 17/78/2 20/79/2 22/80/2
f 23/81/3 21/82/3 22/83/3 24/84/3
f 18/85/4 23/86/4 24/87/4 19/88/4
f 24/89/5 22/90/5 20/91/5 19/92/5
f 18/93/6 17/94/6 21/95/6 23/96/6
f 25/97/1 26/98/1 27/99/1 28/100/1
f 29/101/2 25/102/2 28/103/2 30/104/2
f 31/105/3 29/106/3 30/107/3 32/108/3
f 26/109/4 31/110/4 32/111/4 27/112/4
f 32/113/5 30/114/5 28/115/5 27/116/5
f 26/117/6 25/118/6 29/119/6 31/120/6
f 33/121/1 34/122/1 35/123/1 36/124/1
f 37/125/2 33/126/2 36/127/2 38/128/2
f 39/129/3 37/130/3 38/131/3 40/132/3
f 34/133/4 39/134/4 40/135/4 35/136/4
f 40/137/5 38/138/5 36/139/5 35/140/5
f 34/141/6 33/142/6 37/143/6 39/144/6
f 41/145/1 42/146/1 43/147/1 44/148/1
f 45/149/2 41/150/2 44/151/2 46/152/2
f 47/153/3 45/154/3 46/155/3 48/156/3
f 42/157/4 47/158/4 48/159/4 43/160/4
f 48/161/5 46/162/5 44/163/5 43/164/5
f 42/165/6 41/166/6 45/167/6 47/168/6
f 49/169/1 50/170/1 51/171/1 52/172/1
f 53/173/2 49/174/2 52/175/2 54/176/2
f 55/177/3 53/178/3 54/179/3 56/180/3
f 50/181/4 55/182/4 56/183/4 51/184/4
f 56/185/5 54/186/5 52/187/5 51/188/5
f 50/189/6 49/190/6 53/191/6 55/192/6
f 57/193/4 58/194/4 59/195/4 60/196/4
f 61/197/1 57/198/1 60/199/1 62/200/1
f 63/201/2 61/202/2 62/203/2 64/204/2
f 58/205/3 63/206/3 64/207/3 59/208/3
f 64/209/5 62/210/5 60/211/5 59/212/5
f 58/213/6 57/214/6 61/215/6 63/216/6
f 65/217/4 66/218/4 67/219/4 68/220/4
f 69/221/1 65/222/1 68/223/1 70/224/1
f 71/225/2 69/226/2 70/227/2 72/228/2
f 66/229/3 71/230/3 72/231/3 67/232/3
f 72/233/5 70/234/5 68/235/5 67/236/5
f 66/237/6 65/238/6 69/239/6 71/240/6
f 73/241/1 74/242/1 75/243/1 76/244/1
f 77/245/2 73/246/2 76/247/2 78/248/2
f 79/249/3 77/250/3 78/251/3 80/252/3
f 74/253/4 79/254/4 80/255/4 75/256/4
f 80/257/5 78/258/5 76/259/5 75/260/5
f 74/261/6 73/262/6 77/263/6 79/264/6
f 81/265/1 82/266/1 83/267/1 84/268/1
f 85/269/2 81/270/2 84/271/2 86/272/2
f 87/273/3 85/274/3 86/275/3 88/276/3
f 82/277/4 87/278/4 88/279/4 83/280/4
f 88/281/5 86/282/5 84/283/5 83/284/5
f 82/285/6 81/286/6 85/287/6 87/288/6
f 89/289/1 90/290/1 91/291/1 92/292/1
f 93/293/2 89/294/2 92/295/2 94/296/2
f 95/297/3 93/298/3 94/299/3 96/300/3
f 90/301/4 95/302/4 96/303/4 91/304/4
f 96/305/5 94/306/5 92/307/5 91/308/5
f 90/309/6 89/310/6 93/311/6 95/312/6
f 97/313/1 98/314/1 99/315/1 100/316/1
f 101/317/2 97/318/2 100/319/2 102/320/2
f 103/321/3 101/322/3 102/323/3 104/324/3
f 98/325/4 103/326/4 104/327/4 99/328/4
f 104/329/5 102/330/5 100/331/5 99/332/5
f 98/333/6 97/334/6 101/335/6 103/336/6
f 105/337/4 106/338/4 107/339/4 108/340/4
f 109/341/1 105/342/1 108/343/1 110/344/1
f 111/345/2 109/346/2 110/347/2 112/348/2
f 106/349/3 111/350/3 112/351/3 107/352/3
f 112/353/5 110/354/5 108/355/5 107/356/5
f 106/357/6 105/358/6 109/359/6 111/360/6
f 113/361/4 114/362/4 115/363/4 116/364/4
f 117/365/1 113/366/1 116/367/1 118/368/1
f 119/369/2 117/370/2 118/371/2 120/372/2
f 114/373/3 119/374/3 120/375/3 115/376/3
f 120/377/5 118/378/5 116/379/5 115/380/5
f 114/381/6 113/382/6 117/383/6 119/384/6
f 121/385/11 122/386/11 123/387/11 124/388/11
f 125/389/12 121/390/12 124/391/12 126/392/12
f 127/393/13 125/394/13 126/395/13 128/396/13
f 122/397/14 127/398/14 128/399/14 123/400/14
f 128/401/5 126/402/5 124/403/5 123/404/5
f 122/405/6 121/406/6 125/407/6 127/408/6
f 129/409/15 130/410/15 131/411/15 132/412/15
f 133/413/16 129/414/16 132/415/16 134/416/16
f 135/417/17 133/418/17 134/419/17 136/420/17
f 130/421/18 135/422/18 136/423/18 131/424/18
f 136/425/5 134/426/5 132/427/5 131/428/5
f 130/429/6 129/430/6 133/431/6 135/432/6
