# Blender v3.0.0 OBJ File: ''
# www.blender.org
mtllib drivepin.mtl
o cube.101
v -1.631250 0.812500 -0.687500
v -1.631250 0.812500 -0.562500
v -1.631250 0.937500 -0.562500
v -1.631250 0.937500 -0.687500
v -1.368750 0.812500 -0.687500
v -1.368750 0.937500 -0.687500
v -1.368750 0.812500 -0.562500
v -1.368750 0.937500 -0.562500
v -1.568750 0.687500 -0.812500
v -1.568750 0.687500 -0.437500
v -1.568750 1.062500 -0.437500
v -1.568750 1.062500 -0.812500
v -1.431250 0.687500 -0.812500
v -1.431250 1.062500 -0.812500
v -1.431250 0.687500 -0.437500
v -1.431250 1.062500 -0.437500
v 1.368750 0.812500 -0.687500
v 1.368750 0.812500 -0.562500
v 1.368750 0.937500 -0.562500
v 1.368750 0.937500 -0.687500
v 1.631250 0.812500 -0.687500
v 1.631250 0.937500 -0.687500
v 1.631250 0.812500 -0.562500
v 1.631250 0.937500 -0.562500
v 1.431250 0.687500 -0.812500
v 1.431250 0.687500 -0.437500
v 1.431250 1.062500 -0.437500
v 1.431250 1.062500 -0.812500
v 1.568750 0.687500 -0.812500
v 1.568750 1.062500 -0.812500
v 1.568750 0.687500 -0.437500
v 1.568750 1.062500 -0.437500
vt 0.437500 0.750000
vt 0.562500 0.750000
vt 0.562500 0.875000
vt 0.437500 0.875000
vt 0.437500 0.500000
vt 0.437500 0.687500
vt 0.562500 0.687500
vt 0.562500 0.500000
vt 0.437500 0.750000
vt 0.562500 0.750000
vt 0.562500 0.875000
vt 0.437500 0.875000
vt 0.437500 0.500000
vt 0.437500 0.687500
vt 0.562500 0.687500
vt 0.562500 0.500000
vt 0.562500 0.500000
vt 0.437500 0.500000
vt 0.437500 0.687500
vt 0.562500 0.687500
vt 0.562500 0.500000
vt 0.437500 0.500000
vt 0.437500 0.687500
vt 0.562500 0.687500
vt 0.437500 0.750000
vt 0.562500 0.750000
vt 0.562500 0.875000
vt 0.437500 0.875000
vt 0.437500 0.500000
vt 0.437500 0.687500
vt 0.562500 0.687500
vt 0.562500 0.500000
vt 0.437500 0.750000
vt 0.562500 0.750000
vt 0.562500 0.875000
vt 0.437500 0.875000
vt 0.437500 0.500000
vt 0.437500 0.687500
vt 0.562500 0.687500
vt 0.562500 0.500000
vt 0.562500 0.500000
vt 0.437500 0.500000
vt 0.437500 0.687500
vt 0.562500 0.687500
vt 0.562500 0.500000
vt 0.437500 0.500000
vt 0.437500 0.687500
vt 0.562500 0.687500
vt 0.000000 0.500000
vt 0.187500 0.500000
vt 0.187500 0.687500
vt 0.000000 0.687500
vt 0.250000 0.500000
vt 0.187500 0.500000
vt 0.187500 0.687500
vt 0.250000 0.687500
vt 0.000000 0.500000
vt 0.187500 0.500000
vt 0.187500 0.687500
vt 0.000000 0.687500
vt 0.250000 0.500000
vt 0.250000 0.687500
vt 0.250000 0.500000
vt 0.187500 0.500000
vt 0.187500 0.687500
vt 0.250000 0.687500
vt 0.000000 0.500000
vt 0.187500 0.500000
vt 0.187500 0.687500
vt 0.000000 0.687500
vt 0.250000 0.500000
vt 0.187500 0.500000
vt 0.187500 0.687500
vt 0.250000 0.687500
vt 0.000000 0.500000
vt 0.187500 0.500000
vt 0.187500 0.687500
vt 0.000000 0.687500
vt 0.250000 0.500000
vt 0.250000 0.687500
vt 0.250000 0.500000
vt 0.187500 0.500000
vt 0.187500 0.687500
vt 0.250000 0.687500
vn -1.0000 0.0000 0.0000
vn 0.0000 0.0000 -1.0000
vn 1.0000 0.0000 0.0000
vn 0.0000 -0.0000 1.0000
vn 0.0000 1.0000 0.0000
vn 0.0000 -1.0000 0.0000
usemtl m_d4d5fef3-246e-503b-53f8-228e4ac1ac43.003
s 1
f 1/1/1 2/2/1 3/3/1 4/4/1
f 5/5/2 1/6/2 4/7/2 6/8/2
f 7/9/3 5/10/3 6/11/3 8/12/3
f 2/13/4 7/14/4 8/15/4 3/16/4
f 8/17/5 6/18/5 4/19/5 3/20/5
f 2/21/6 1/22/6 5/23/6 7/24/6
f 17/25/1 18/26/1 19/27/1 20/28/1
f 21/29/2 17/30/2 20/31/2 22/32/2
f 23/33/3 21/34/3 22/35/3 24/36/3
f 18/37/4 23/38/4 24/39/4 19/40/4
f 24/41/5 22/42/5 20/43/5 19/44/5
f 18/45/6 17/46/6 21/47/6 23/48/6
usemtl m_c4294e38-8894-28e5-5484-7358e9cf2044.006
f 9/49/1 10/50/1 11/51/1 12/52/1
f 13/53/2 9/54/2 12/55/2 14/56/2
f 15/57/3 13/58/3 14/59/3 16/60/3
f 10/50/4 15/61/4 16/62/4 11/51/4
f 16/63/5 14/56/5 12/55/5 11/64/5
f 10/50/6 9/65/6 13/66/6 15/61/6
f 25/67/1 26/68/1 27/69/1 28/70/1
f 29/71/2 25/72/2 28/73/2 30/74/2
f 31/75/3 29/76/3 30/77/3 32/78/3
f 26/68/4 31/79/4 32/80/4 27/69/4
f 32/81/5 30/74/5 28/73/5 27/82/5
f 26/68/6 25/83/6 29/84/6 31/79/6
