# Blender v3.4.0 OBJ File: ''
# www.blender.org
mtllib single_axel_leading_truck_pin.mtl
o cube.000
v 0.125000 1.750000 -0.125000
v 0.125000 1.250000 -0.125000
v -0.125000 1.250000 -0.125000
v -0.125000 1.750000 -0.125000
v 0.125000 1.750000 0.125000
v -0.125000 1.750000 0.125000
v 0.125000 1.250000 0.125000
v -0.125000 1.250000 0.125000
v 0.187500 0.562500 -0.187500
v -0.187500 0.562500 -0.187500
v -0.187500 0.687500 -0.187500
v 0.187500 0.687500 -0.187500
v 0.187500 0.562500 0.187500
v 0.187500 0.687500 0.187500
v -0.187500 0.562500 0.187500
v -0.187500 0.687500 0.187500
v 0.125000 1.250000 -0.125000
v 0.125000 0.687500 -0.125000
v -0.125000 0.687500 -0.125000
v -0.125000 1.250000 -0.125000
v 0.125000 1.250000 0.125000
v -0.125000 1.250000 0.125000
v 0.125000 0.687500 0.125000
v -0.125000 0.687500 0.125000
vt 0.000000 0.875000
vt 0.250000 0.875000
vt 0.250000 1.000000
vt 0.000000 1.000000
vt 0.156250 0.406250
vt 0.281250 0.406250
vt 0.281250 0.531250
vt 0.156250 0.531250
vt 0.031250 0.875000
vt 0.281250 0.875000
vt 0.281250 1.000000
vt 0.031250 1.000000
vt 0.156250 0.406250
vt 0.281250 0.406250
vt 0.281250 0.531250
vt 0.156250 0.531250
vt 0.562500 1.000000
vt 0.312500 1.000000
vt 0.312500 0.875000
vt 0.562500 0.875000
vt 0.562500 0.875000
vt 0.312500 0.875000
vt 0.312500 1.000000
vt 0.562500 1.000000
vt 0.531250 0.781250
vt 0.718750 0.781250
vt 0.718750 0.843750
vt 0.531250 0.843750
vt 0.531250 0.500000
vt 0.718750 0.500000
vt 0.718750 0.562500
vt 0.531250 0.562500
vt 0.531250 0.781250
vt 0.718750 0.781250
vt 0.718750 0.843750
vt 0.531250 0.843750
vt 0.531250 0.500000
vt 0.718750 0.500000
vt 0.718750 0.562500
vt 0.531250 0.562500
vt 0.500000 0.843750
vt 0.312500 0.843750
vt 0.312500 0.656250
vt 0.500000 0.656250
vt 0.500000 0.437500
vt 0.312500 0.437500
vt 0.312500 0.625000
vt 0.500000 0.625000
vt 0.000000 0.875000
vt 0.281250 0.875000
vt 0.281250 1.000000
vt 0.000000 1.000000
vt 0.156250 0.406250
vt 0.281250 0.406250
vt 0.281250 0.531250
vt 0.156250 0.531250
vt 0.000000 0.875000
vt 0.281250 0.875000
vt 0.281250 1.000000
vt 0.000000 1.000000
vt 0.156250 0.406250
vt 0.281250 0.406250
vt 0.281250 0.531250
vt 0.156250 0.531250
vt 0.593750 1.000000
vt 0.312500 1.000000
vt 0.312500 0.875000
vt 0.593750 0.875000
vt 0.593750 0.875000
vt 0.312500 0.875000
vt 0.312500 1.000000
vt 0.593750 1.000000
vn 0.0000 0.0000 -1.0000
vn 0.0000 1.0000 0.0000
vn 0.0000 -0.0000 1.0000
vn 0.0000 -1.0000 0.0000
vn -1.0000 -0.0000 0.0000
vn 1.0000 -0.0000 0.0000
usemtl m_54478cc5-04c8-2c62-faf5-93fc078aed35
s 1
f 1/1/1 2/2/1 3/3/1 4/4/1
f 5/5/2 1/6/2 4/7/2 6/8/2
f 7/9/3 5/10/3 6/11/3 8/12/3
f 2/13/4 7/14/4 8/15/4 3/16/4
f 8/17/5 6/18/5 4/19/5 3/20/5
f 2/21/6 1/22/6 5/23/6 7/24/6
f 9/25/1 10/26/1 11/27/1 12/28/1
f 13/29/6 9/30/6 12/31/6 14/32/6
f 15/33/3 13/34/3 14/35/3 16/36/3
f 10/37/5 15/38/5 16/39/5 11/40/5
f 16/41/2 14/42/2 12/43/2 11/44/2
f 10/45/4 9/46/4 13/47/4 15/48/4
f 17/49/1 18/50/1 19/51/1 20/52/1
f 21/53/2 17/54/2 20/55/2 22/56/2
f 23/57/3 21/58/3 22/59/3 24/60/3
f 18/61/4 23/62/4 24/63/4 19/64/4
f 24/65/5 22/66/5 20/67/5 19/68/5
f 18/69/6 17/70/6 21/71/6 23/72/6
