# Made in Blockbench 4.6.0
mtllib singleAxelLeadingTruckFrame.mtl

o cube
v 0.75 0.9375 -0.75
v 0.75 0.9375 -1.25
v 0.75 0.3125 -0.75
v 0.75 0.3125 -1.25
v 0.375 0.9375 -1.25
v 0.375 0.9375 -0.75
v 0.375 0.3125 -1.25
v 0.375 0.3125 -0.75
vt 0.515625 0.859375
vt 0.5625 0.859375
vt 0.5625 0.78125
vt 0.515625 0.78125
vt 0.2265625 0.609375
vt 0.2890625 0.609375
vt 0.2890625 0.53125
vt 0.2265625 0.53125
vt 0.515625 0.5625
vt 0.5625 0.5625
vt 0.5625 0.484375
vt 0.515625 0.484375
vt 0.2265625 0.609375
vt 0.2890625 0.609375
vt 0.2890625 0.53125
vt 0.2265625 0.53125
vt 0.2421875 0.390625
vt 0.1953125 0.390625
vt 0.1953125 0.453125
vt 0.2421875 0.453125
vt 0.6171875 0.453125
vt 0.5703125 0.453125
vt 0.5703125 0.390625
vt 0.6171875 0.390625
vn 0 0 -1
vn 1 0 0
vn 0 0 1
vn -1 0 0
vn 0 1 0
vn 0 -1 0
usemtl m_599978e2-eac0-f248-498a-dfd140abba20
f 4/4/1 7/3/1 5/2/1 2/1/1
f 3/8/2 4/7/2 2/6/2 1/5/2
f 8/12/3 3/11/3 1/10/3 6/9/3
f 7/16/4 8/15/4 6/14/4 5/13/4
f 6/20/5 1/19/5 2/18/5 5/17/5
f 7/24/6 4/23/6 3/22/6 8/21/6
o cube
v 1.1102230246251565e-16 0.9375 0.35355339059327373
v 0.35355339059327384 0.9375 0
v 1.1102230246251565e-16 0.75 0.35355339059327373
v 0.35355339059327384 0.75 0
v 1.1102230246251565e-16 0.9375 -0.35355339059327373
v -0.3535533905932736 0.9375 0
v 1.1102230246251565e-16 0.75 -0.35355339059327373
v -0.3535533905932736 0.75 0
vt 0.6484375 0.6328125
vt 0.7109375 0.6328125
vt 0.7109375 0.609375
vt 0.6484375 0.609375
vt 0.6484375 0.6015625
vt 0.7109375 0.6015625
vt 0.7109375 0.578125
vt 0.6484375 0.578125
vt 0.6484375 0.6328125
vt 0.7109375 0.6328125
vt 0.7109375 0.609375
vt 0.6484375 0.609375
vt 0.6484375 0.6015625
vt 0.7109375 0.6015625
vt 0.7109375 0.578125
vt 0.6484375 0.578125
vt 0.5078125 0.625
vt 0.4453125 0.625
vt 0.4453125 0.6875
vt 0.5078125 0.6875
vt 0.2578125 0.5234375
vt 0.1953125 0.5234375
vt 0.1953125 0.4609375
vt 0.2578125 0.4609375
vn 0.7071067811865476 0 -0.7071067811865475
vn 0.7071067811865475 0 0.7071067811865476
vn -0.7071067811865476 0 0.7071067811865475
vn -0.7071067811865475 0 -0.7071067811865476
vn 0 1 0
vn 0 -1 0
usemtl m_599978e2-eac0-f248-498a-dfd140abba20
f 12/28/7 15/27/7 13/26/7 10/25/7
f 11/32/8 12/31/8 10/30/8 9/29/8
f 16/36/9 11/35/9 9/34/9 14/33/9
f 15/40/10 16/39/10 14/38/10 13/37/10
f 14/44/11 9/43/11 10/42/11 13/41/11
f 15/48/12 12/47/12 11/46/12 16/45/12
o cube
v -0.4375 0.9375 -0.75
v -0.4375 0.9375 -1.25
v -0.4375 0.3125 -0.75
v -0.4375 0.3125 -1.25
v -0.8125 0.9375 -1.25
v -0.8125 0.9375 -0.75
v -0.8125 0.3125 -1.25
v -0.8125 0.3125 -0.75
vt 0.515625 0.859375
vt 0.5625 0.859375
vt 0.5625 0.78125
vt 0.515625 0.78125
vt 0.2265625 0.609375
vt 0.2890625 0.609375
vt 0.2890625 0.53125
vt 0.2265625 0.53125
vt 0.515625 0.5625
vt 0.5625 0.5625
vt 0.5625 0.484375
vt 0.515625 0.484375
vt 0.2265625 0.609375
vt 0.2890625 0.609375
vt 0.2890625 0.53125
vt 0.2265625 0.53125
vt 0.2421875 0.390625
vt 0.1953125 0.390625
vt 0.1953125 0.453125
vt 0.2421875 0.453125
vt 0.6171875 0.453125
vt 0.5703125 0.453125
vt 0.5703125 0.390625
vt 0.6171875 0.390625
vn 0 0 -1
vn 1 0 0
vn 0 0 1
vn -1 0 0
vn 0 1 0
vn 0 -1 0
usemtl m_599978e2-eac0-f248-498a-dfd140abba20
f 20/52/13 23/51/13 21/50/13 18/49/13
f 19/56/14 20/55/14 18/54/14 17/53/14
f 24/60/15 19/59/15 17/58/15 22/57/15
f 23/64/16 24/63/16 22/62/16 21/61/16
f 22/68/17 17/67/17 18/66/17 21/65/17
f 23/72/18 20/71/18 19/70/18 24/69/18
o cube
v 0.011909784263954393 0.875 -0.012722658751413152
v 0.6874999918796147 0.875 -0.7499999955615375
v 0.011909784263954393 0.8125 -0.012722658751413152
v 0.6874999918796147 0.8125 -0.7499999955615375
v 0.5031806576770839 0.875 -0.9188975474654525
v -0.17240954993857655 0.875 -0.18162021065532813
v 0.5031806576770839 0.8125 -0.9188975474654525
v -0.17240954993857655 0.8125 -0.18162021065532813
vt 0.4609375 0.78125
vt 0.4921875 0.78125
vt 0.4921875 0.7734375
vt 0.4609375 0.7734375
vt 0.65625 1
vt 0.78125 1
vt 0.78125 0.9921875
vt 0.65625 0.9921875
vt 0.515625 0.6328125
vt 0.546875 0.6328125
vt 0.546875 0.625
vt 0.515625 0.625
vt 0.65625 1
vt 0.78125 1
vt 0.78125 0.9921875
vt 0.65625 0.9921875
vt 0.5078125 0.7890625
vt 0.4765625 0.7890625
vt 0.4765625 0.9140625
vt 0.5078125 0.9140625
vt 0.1875 0.5234375
vt 0.15625 0.5234375
vt 0.15625 0.3984375
vt 0.1875 0.3984375
vn 0.6755902076156601 0 -0.7372773368101242
vn 0.7372773368101242 0 0.6755902076156601
vn -0.6755902076156601 0 0.7372773368101242
vn -0.7372773368101242 0 -0.6755902076156601
vn 0 1 0
vn 0 -1 0
usemtl m_599978e2-eac0-f248-498a-dfd140abba20
f 28/76/19 31/75/19 29/74/19 26/73/19
f 27/80/20 28/79/20 26/78/20 25/77/20
f 32/84/21 27/83/21 25/82/21 30/81/21
f 31/88/22 32/87/22 30/86/22 29/85/22
f 30/92/23 25/91/23 26/90/23 29/89/23
f 31/96/24 28/95/24 27/94/24 32/93/24
o cube
v 0.17240956350012837 0.875 -0.18162021065532807
v -0.5031806441155319 0.875 -0.9188975474654524
v 0.17240956350012837 0.8125 -0.18162021065532807
v -0.5031806441155319 0.8125 -0.9188975474654524
v -0.687499978318063 0.875 -0.7499999955615373
v -0.011909770702402733 0.875 -0.012722658751412985
v -0.687499978318063 0.8125 -0.7499999955615373
v -0.011909770702402733 0.8125 -0.012722658751412985
vt 0.65625 0.5234375
vt 0.6875 0.5234375
vt 0.6875 0.515625
vt 0.65625 0.515625
vt 0.65625 0.7734375
vt 0.78125 0.7734375
vt 0.78125 0.765625
vt 0.65625 0.765625
vt 0.65625 0.5078125
vt 0.6875 0.5078125
vt 0.6875 0.5
vt 0.65625 0.5
vt 0.65625 0.7734375
vt 0.78125 0.7734375
vt 0.78125 0.765625
vt 0.65625 0.765625
vt 0.296875 0.3984375
vt 0.265625 0.3984375
vt 0.265625 0.5234375
vt 0.296875 0.5234375
vt 0.3359375 0.5234375
vt 0.3046875 0.5234375
vt 0.3046875 0.3984375
vt 0.3359375 0.3984375
vn -0.6755902076156601 0 -0.7372773368101242
vn 0.7372773368101242 0 -0.6755902076156601
vn 0.6755902076156601 0 0.7372773368101242
vn -0.7372773368101242 0 0.6755902076156601
vn 0 1 0
vn 0 -1 0
usemtl m_599978e2-eac0-f248-498a-dfd140abba20
f 36/100/25 39/99/25 37/98/25 34/97/25
f 35/104/26 36/103/26 34/102/26 33/101/26
f 40/108/27 35/107/27 33/106/27 38/105/27
f 39/112/28 40/111/28 38/110/28 37/109/28
f 38/116/29 33/115/29 34/114/29 37/113/29
f 39/120/30 36/119/30 35/118/30 40/117/30
o cube
v 0.3125 0.8125 -0.8125
v 0.3125 0.8125 -1.1875
v 0.3125 0.4375 -0.8125
v 0.3125 0.4375 -1.1875
v -0.3125 0.8125 -1.1875
v -0.3125 0.8125 -0.8125
v -0.3125 0.4375 -1.1875
v -0.3125 0.4375 -0.8125
vt 0.34375 0.5234375
vt 0.421875 0.5234375
vt 0.421875 0.4765625
vt 0.34375 0.4765625
vt 0.6015625 0.6875
vt 0.6484375 0.6875
vt 0.6484375 0.640625
vt 0.6015625 0.640625
vt 0.34375 0.5234375
vt 0.421875 0.5234375
vt 0.421875 0.4765625
vt 0.34375 0.4765625
vt 0.6015625 0.6875
vt 0.6484375 0.6875
vt 0.6484375 0.640625
vt 0.6015625 0.640625
vt 0.5859375 0.5703125
vt 0.5078125 0.5703125
vt 0.5078125 0.6171875
vt 0.5859375 0.6171875
vt 0.59375 0.9140625
vt 0.515625 0.9140625
vt 0.515625 0.8671875
vt 0.59375 0.8671875
vn 0 0 -1
vn 1 0 0
vn 0 0 1
vn -1 0 0
vn 0 1 0
vn 0 -1 0
usemtl m_599978e2-eac0-f248-498a-dfd140abba20
f 44/124/31 47/123/31 45/122/31 42/121/31
f 43/128/32 44/127/32 42/126/32 41/125/32
f 48/132/33 43/131/33 41/130/33 46/129/33
f 47/136/34 48/135/34 46/134/34 45/133/34
f 46/140/35 41/139/35 42/138/35 45/137/35
f 47/144/36 44/143/36 43/142/36 48/141/36