# Blender v3.4.0 OBJ File: ''
# www.blender.org
mtllib single_axel_leading_truck_frame.mtl
o cube
v 0.750000 0.312500 -1.250000
v 0.375000 0.312500 -1.250000
v 0.375000 0.937500 -1.250000
v 0.750000 0.937500 -1.250000
v 0.750000 0.312500 -0.750000
v 0.750000 0.937500 -0.750000
v 0.375000 0.312500 -0.750000
v 0.375000 0.937500 -0.750000
v 0.353553 0.750000 0.000000
v 0.000000 0.750000 -0.353553
v 0.000000 0.937500 -0.353553
v 0.353553 0.937500 0.000000
v 0.000000 0.750000 0.353553
v 0.000000 0.937500 0.353553
v -0.353553 0.750000 0.000000
v -0.353553 0.937500 0.000000
v -0.437500 0.312500 -1.250000
v -0.812500 0.312500 -1.250000
v -0.812500 0.937500 -1.250000
v -0.437500 0.937500 -1.250000
v -0.437500 0.312500 -0.750000
v -0.437500 0.937500 -0.750000
v -0.812500 0.312500 -0.750000
v -0.812500 0.937500 -0.750000
v 0.687500 0.812500 -0.750000
v 0.503181 0.812500 -0.918898
v 0.503181 0.875000 -0.918898
v 0.687500 0.875000 -0.750000
v 0.011910 0.812500 -0.012723
v 0.011910 0.875000 -0.012723
v -0.172410 0.812500 -0.181620
v -0.172410 0.875000 -0.181620
v -0.503181 0.812500 -0.918898
v -0.687500 0.812500 -0.750000
v -0.687500 0.875000 -0.750000
v -0.503181 0.875000 -0.918898
v 0.172410 0.812500 -0.181620
v 0.172410 0.875000 -0.181620
v -0.011910 0.812500 -0.012723
v -0.011910 0.875000 -0.012723
v 0.312500 0.437500 -1.187500
v -0.312500 0.437500 -1.187500
v -0.312500 0.812500 -1.187500
v 0.312500 0.812500 -1.187500
v 0.312500 0.437500 -0.812500
v 0.312500 0.812500 -0.812500
v -0.312500 0.437500 -0.812500
v -0.312500 0.812500 -0.812500
vt 0.515625 0.781250
vt 0.562500 0.781250
vt 0.562500 0.859375
vt 0.515625 0.859375
vt 0.226562 0.531250
vt 0.289062 0.531250
vt 0.289062 0.609375
vt 0.226562 0.609375
vt 0.515625 0.484375
vt 0.562500 0.484375
vt 0.562500 0.562500
vt 0.515625 0.562500
vt 0.226562 0.531250
vt 0.289062 0.531250
vt 0.289062 0.609375
vt 0.226562 0.609375
vt 0.242188 0.453125
vt 0.195312 0.453125
vt 0.195312 0.390625
vt 0.242188 0.390625
vt 0.617188 0.390625
vt 0.570312 0.390625
vt 0.570312 0.453125
vt 0.617188 0.453125
vt 0.648438 0.609375
vt 0.710938 0.609375
vt 0.710938 0.632812
vt 0.648438 0.632812
vt 0.648438 0.578125
vt 0.710938 0.578125
vt 0.710938 0.601562
vt 0.648438 0.601562
vt 0.648438 0.609375
vt 0.710938 0.609375
vt 0.710938 0.632812
vt 0.648438 0.632812
vt 0.648438 0.578125
vt 0.710938 0.578125
vt 0.710938 0.601562
vt 0.648438 0.601562
vt 0.507812 0.687500
vt 0.445312 0.687500
vt 0.445312 0.625000
vt 0.507812 0.625000
vt 0.257812 0.460938
vt 0.195312 0.460938
vt 0.195312 0.523438
vt 0.257812 0.523438
vt 0.515625 0.781250
vt 0.562500 0.781250
vt 0.562500 0.859375
vt 0.515625 0.859375
vt 0.226562 0.531250
vt 0.289062 0.531250
vt 0.289062 0.609375
vt 0.226562 0.609375
vt 0.515625 0.484375
vt 0.562500 0.484375
vt 0.562500 0.562500
vt 0.515625 0.562500
vt 0.226562 0.531250
vt 0.289062 0.531250
vt 0.289062 0.609375
vt 0.226562 0.609375
vt 0.242188 0.453125
vt 0.195312 0.453125
vt 0.195312 0.390625
vt 0.242188 0.390625
vt 0.617188 0.390625
vt 0.570312 0.390625
vt 0.570312 0.453125
vt 0.617188 0.453125
vt 0.460938 0.773438
vt 0.492188 0.773438
vt 0.492188 0.781250
vt 0.460938 0.781250
vt 0.656250 0.992188
vt 0.781250 0.992188
vt 0.781250 1.000000
vt 0.656250 1.000000
vt 0.515625 0.625000
vt 0.546875 0.625000
vt 0.546875 0.632812
vt 0.515625 0.632812
vt 0.656250 0.992188
vt 0.781250 0.992188
vt 0.781250 1.000000
vt 0.656250 1.000000
vt 0.507812 0.914062
vt 0.476562 0.914062
vt 0.476562 0.789062
vt 0.507812 0.789062
vt 0.187500 0.398438
vt 0.156250 0.398438
vt 0.156250 0.523438
vt 0.187500 0.523438
vt 0.656250 0.515625
vt 0.687500 0.515625
vt 0.687500 0.523438
vt 0.656250 0.523438
vt 0.656250 0.765625
vt 0.781250 0.765625
vt 0.781250 0.773438
vt 0.656250 0.773438
vt 0.656250 0.500000
vt 0.687500 0.500000
vt 0.687500 0.507812
vt 0.656250 0.507812
vt 0.656250 0.765625
vt 0.781250 0.765625
vt 0.781250 0.773438
vt 0.656250 0.773438
vt 0.296875 0.523438
vt 0.265625 0.523438
vt 0.265625 0.398438
vt 0.296875 0.398438
vt 0.335938 0.398438
vt 0.304688 0.398438
vt 0.304688 0.523438
vt 0.335938 0.523438
vt 0.343750 0.476562
vt 0.421875 0.476562
vt 0.421875 0.523438
vt 0.343750 0.523438
vt 0.601562 0.640625
vt 0.648438 0.640625
vt 0.648438 0.687500
vt 0.601562 0.687500
vt 0.343750 0.476562
vt 0.421875 0.476562
vt 0.421875 0.523438
vt 0.343750 0.523438
vt 0.601562 0.640625
vt 0.648438 0.640625
vt 0.648438 0.687500
vt 0.601562 0.687500
vt 0.585938 0.617188
vt 0.507812 0.617188
vt 0.507812 0.570312
vt 0.585938 0.570312
vt 0.593750 0.867188
vt 0.515625 0.867188
vt 0.515625 0.914062
vt 0.593750 0.914062
vn 0.0000 0.0000 -1.0000
vn 1.0000 0.0000 0.0000
vn 0.0000 -0.0000 1.0000
vn -1.0000 0.0000 0.0000
vn 0.0000 1.0000 0.0000
vn 0.0000 -1.0000 -0.0000
vn 0.7071 0.0000 -0.7071
vn 0.7071 -0.0000 0.7071
vn -0.7071 -0.0000 0.7071
vn -0.7071 0.0000 -0.7071
vn 0.6756 0.0000 -0.7373
vn 0.7373 0.0000 0.6756
vn -0.6756 -0.0000 0.7373
vn -0.7373 0.0000 -0.6756
vn -0.6756 0.0000 -0.7373
vn 0.7373 0.0000 -0.6756
vn 0.6756 -0.0000 0.7373
vn -0.7373 0.0000 0.6756
usemtl m_599978e2-eac0-f248-498a-dfd140abba20
s 1
f 1/1/1 2/2/1 3/3/1 4/4/1
f 5/5/2 1/6/2 4/7/2 6/8/2
f 7/9/3 5/10/3 6/11/3 8/12/3
f 2/13/4 7/14/4 8/15/4 3/16/4
f 8/17/5 6/18/5 4/19/5 3/20/5
f 2/21/6 1/22/6 5/23/6 7/24/6
f 9/25/7 10/26/7 11/27/7 12/28/7
f 13/29/8 9/30/8 12/31/8 14/32/8
f 15/33/9 13/34/9 14/35/9 16/36/9
f 10/37/10 15/38/10 16/39/10 11/40/10
f 16/41/5 14/42/5 12/43/5 11/44/5
f 10/45/6 9/46/6 13/47/6 15/48/6
f 17/49/1 18/50/1 19/51/1 20/52/1
f 21/53/2 17/54/2 20/55/2 22/56/2
f 23/57/3 21/58/3 22/59/3 24/60/3
f 18/61/4 23/62/4 24/63/4 19/64/4
f 24/65/5 22/66/5 20/67/5 19/68/5
f 18/69/6 17/70/6 21/71/6 23/72/6
f 25/73/11 26/74/11 27/75/11 28/76/11
f 29/77/12 25/78/12 28/79/12 30/80/12
f 31/81/13 29/82/13 30/83/13 32/84/13
f 26/85/14 31/86/14 32/87/14 27/88/14
f 32/89/5 30/90/5 28/91/5 27/92/5
f 26/93/6 25/94/6 29/95/6 31/96/6
f 33/97/15 34/98/15 35/99/15 36/100/15
f 37/101/16 33/102/16 36/103/16 38/104/16
f 39/105/17 37/106/17 38/107/17 40/108/17
f 34/109/18 39/110/18 40/111/18 35/112/18
f 40/113/5 38/114/5 36/115/5 35/116/5
f 34/117/6 33/118/6 37/119/6 39/120/6
f 41/121/1 42/122/1 43/123/1 44/124/1
f 45/125/2 41/126/2 44/127/2 46/128/2
f 47/129/3 45/130/3 46/131/3 48/132/3
f 42/133/4 47/134/4 48/135/4 43/136/4
f 48/137/5 46/138/5 44/139/5 43/140/5
f 42/141/6 41/142/6 45/143/6 47/144/6
