# Blender v3.0.0 OBJ File: ''
# www.blender.org
mtllib driverod.mtl
o cube.117
v -1.562500 0.857364 0.753499
v -1.562500 0.890047 1.127072
v -1.562500 1.263620 1.094389
v -1.562500 1.230937 0.720816
v -1.437500 0.857364 0.753499
v -1.437500 1.230937 0.720816
v -1.437500 0.890047 1.127072
v -1.437500 1.263620 1.094389
v -1.562500 0.862049 -0.627163
v -1.562500 0.981888 0.742604
v -1.562500 1.106413 0.731710
v -1.562500 0.986574 -0.638058
v -1.437500 0.862049 -0.627163
v -1.437500 0.986574 -0.638058
v -1.437500 0.981888 0.742604
v -1.437500 1.106413 0.731710
v -1.562500 0.862049 -0.627163
v -1.562500 0.981888 0.742604
v -1.562500 1.106413 0.731710
v -1.562500 0.986574 -0.638058
v -1.437500 0.862049 -0.627163
v -1.437500 0.986574 -0.638058
v -1.437500 0.981888 0.742604
v -1.437500 1.106413 0.731710
v -1.562500 0.857364 0.753499
v -1.562500 0.890047 1.127072
v -1.562500 1.263620 1.094389
v -1.562500 1.230937 0.720816
v -1.437500 0.857364 0.753499
v -1.437500 1.230937 0.720816
v -1.437500 0.890047 1.127072
v -1.437500 1.263620 1.094389
v 1.437500 0.862049 -0.627163
v 1.437500 0.981888 0.742604
v 1.437500 1.106413 0.731710
v 1.437500 0.986574 -0.638058
v 1.562500 0.862049 -0.627163
v 1.562500 0.986574 -0.638058
v 1.562500 0.981888 0.742604
v 1.562500 1.106413 0.731710
v 1.437500 0.857364 0.753499
v 1.437500 0.890047 1.127072
v 1.437500 1.263620 1.094389
v 1.437500 1.230937 0.720816
v 1.562500 0.857364 0.753499
v 1.562500 1.230937 0.720816
v 1.562500 0.890047 1.127072
v 1.562500 1.263620 1.094389
v 1.437500 0.862049 -0.627163
v 1.437500 0.981888 0.742604
v 1.437500 1.106413 0.731710
v 1.437500 0.986574 -0.638058
v 1.562500 0.862049 -0.627163
v 1.562500 0.986574 -0.638058
v 1.562500 0.981888 0.742604
v 1.562500 1.106413 0.731710
v 1.437500 0.857364 0.753499
v 1.437500 0.890047 1.127072
v 1.437500 1.263620 1.094389
v 1.437500 1.230937 0.720816
v 1.562500 0.857364 0.753499
v 1.562500 1.230937 0.720816
v 1.562500 0.890047 1.127072
v 1.562500 1.263620 1.094389
vt 0.000000 0.500000
vt 0.187500 0.500000
vt 0.187500 0.687500
vt 0.000000 0.687500
vt 0.250000 0.500000
vt 0.187500 0.500000
vt 0.187500 0.687500
vt 0.250000 0.687500
vt 0.000000 0.500000
vt 0.187500 0.500000
vt 0.187500 0.687500
vt 0.000000 0.687500
vt 0.250000 0.500000
vt 0.250000 0.687500
vt 0.250000 0.500000
vt 0.187500 0.500000
vt 0.187500 0.687500
vt 0.250000 0.687500
vt 0.000000 0.937500
vt 0.500000 0.937500
vt 0.500000 1.000000
vt 0.000000 1.000000
vt 0.000000 0.937500
vt 0.500000 0.937500
vt 0.500000 1.000000
vt 0.000000 1.000000
vt 0.000000 0.937500
vt 0.500000 0.937500
vt 0.500000 1.000000
vt 0.000000 1.000000
vt 0.000000 0.937500
vt 0.500000 0.937500
vt 0.500000 1.000000
vt 0.000000 1.000000
vt 0.000000 0.937500
vt 0.500000 0.937500
vt 0.000000 0.812500
vt 0.500000 0.812500
vt 0.500000 0.875000
vt 0.000000 0.875000
vt 0.000000 0.937500
vt 0.500000 0.937500
vt 0.500000 1.000000
vt 0.000000 1.000000
vt 0.000000 0.937500
vt 0.500000 0.937500
vt 0.500000 1.000000
vt 0.000000 1.000000
vt 0.000000 0.937500
vt 0.500000 0.937500
vt 0.500000 1.000000
vt 0.000000 1.000000
vt 0.000000 0.937500
vt 0.500000 0.937500
vt 0.500000 1.000000
vt 0.000000 1.000000
vt 0.000000 0.937500
vt 0.500000 0.937500
vt 0.000000 0.812500
vt 0.500000 0.812500
vt 0.500000 0.875000
vt 0.000000 0.875000
vt 0.000000 0.500000
vt 0.187500 0.500000
vt 0.187500 0.687500
vt 0.000000 0.687500
vt 0.250000 0.500000
vt 0.187500 0.500000
vt 0.187500 0.687500
vt 0.250000 0.687500
vt 0.000000 0.500000
vt 0.187500 0.500000
vt 0.187500 0.687500
vt 0.000000 0.687500
vt 0.250000 0.500000
vt 0.250000 0.687500
vt 0.250000 0.500000
vt 0.187500 0.500000
vt 0.187500 0.687500
vt 0.250000 0.687500
vt 0.000000 0.937500
vt 0.500000 0.937500
vt 0.500000 1.000000
vt 0.000000 1.000000
vt 0.000000 0.937500
vt 0.500000 0.937500
vt 0.500000 1.000000
vt 0.000000 1.000000
vt 0.000000 0.937500
vt 0.500000 0.937500
vt 0.500000 1.000000
vt 0.000000 1.000000
vt 0.000000 0.937500
vt 0.500000 0.937500
vt 0.500000 1.000000
vt 0.000000 1.000000
vt 0.000000 0.937500
vt 0.500000 0.937500
vt 0.000000 0.812500
vt 0.500000 0.812500
vt 0.500000 0.875000
vt 0.000000 0.875000
vt 0.000000 0.500000
vt 0.187500 0.500000
vt 0.187500 0.687500
vt 0.000000 0.687500
vt 0.250000 0.500000
vt 0.187500 0.500000
vt 0.187500 0.687500
vt 0.250000 0.687500
vt 0.000000 0.500000
vt 0.187500 0.500000
vt 0.187500 0.687500
vt 0.000000 0.687500
vt 0.250000 0.500000
vt 0.250000 0.687500
vt 0.250000 0.500000
vt 0.187500 0.500000
vt 0.187500 0.687500
vt 0.250000 0.687500
vt 0.000000 0.937500
vt 0.500000 0.937500
vt 0.500000 1.000000
vt 0.000000 1.000000
vt 0.000000 0.937500
vt 0.500000 0.937500
vt 0.500000 1.000000
vt 0.000000 1.000000
vt 0.000000 0.937500
vt 0.500000 0.937500
vt 0.500000 1.000000
vt 0.000000 1.000000
vt 0.000000 0.937500
vt 0.500000 0.937500
vt 0.500000 1.000000
vt 0.000000 1.000000
vt 0.000000 0.937500
vt 0.500000 0.937500
vt 0.000000 0.812500
vt 0.500000 0.812500
vt 0.500000 0.875000
vt 0.000000 0.875000
vt 0.000000 0.500000
vt 0.187500 0.500000
vt 0.187500 0.687500
vt 0.000000 0.687500
vt 0.250000 0.500000
vt 0.187500 0.500000
vt 0.187500 0.687500
vt 0.250000 0.687500
vt 0.000000 0.500000
vt 0.187500 0.500000
vt 0.187500 0.687500
vt 0.000000 0.687500
vt 0.250000 0.500000
vt 0.250000 0.687500
vt 0.250000 0.500000
vt 0.187500 0.500000
vt 0.187500 0.687500
vt 0.250000 0.687500
vn -1.0000 0.0000 0.0000
vn 0.0000 -0.0872 -0.9962
vn 1.0000 0.0000 0.0000
vn 0.0000 0.0872 0.9962
vn 0.0000 0.9962 -0.0872
vn 0.0000 -0.9962 0.0872
usemtl m_c4294e38-8894-28e5-5484-7358e9cf2044.008
s 1
f 1/1/1 2/2/1 3/3/1 4/4/1
f 5/5/2 1/6/2 4/7/2 6/8/2
f 7/9/3 5/10/3 6/11/3 8/12/3
f 2/2/4 7/13/4 8/14/4 3/3/4
f 8/15/5 6/8/5 4/7/5 3/16/5
f 2/2/6 1/17/6 5/18/6 7/13/6
f 9/19/1 10/20/1 11/21/1 12/22/1
f 13/23/2 9/24/2 12/25/2 14/26/2
f 15/27/3 13/28/3 14/29/3 16/30/3
f 10/31/4 15/32/4 16/33/4 11/34/4
f 16/35/5 14/36/5 12/25/5 11/34/5
f 10/37/6 9/38/6 13/39/6 15/40/6
f 17/41/1 18/42/1 19/43/1 20/44/1
f 21/45/2 17/46/2 20/47/2 22/48/2
f 23/49/3 21/50/3 22/51/3 24/52/3
f 18/53/4 23/54/4 24/55/4 19/56/4
f 24/57/5 22/58/5 20/47/5 19/56/5
f 18/59/6 17/60/6 21/61/6 23/62/6
f 25/63/1 26/64/1 27/65/1 28/66/1
f 29/67/2 25/68/2 28/69/2 30/70/2
f 31/71/3 29/72/3 30/73/3 32/74/3
f 26/64/4 31/75/4 32/76/4 27/65/4
f 32/77/5 30/70/5 28/69/5 27/78/5
f 26/64/6 25/79/6 29/80/6 31/75/6
f 33/81/1 34/82/1 35/83/1 36/84/1
f 37/85/2 33/86/2 36/87/2 38/88/2
f 39/89/3 37/90/3 38/91/3 40/92/3
f 34/93/4 39/94/4 40/95/4 35/96/4
f 40/97/5 38/98/5 36/87/5 35/96/5
f 34/99/6 33/100/6 37/101/6 39/102/6
f 41/103/1 42/104/1 43/105/1 44/106/1
f 45/107/2 41/108/2 44/109/2 46/110/2
f 47/111/3 45/112/3 46/113/3 48/114/3
f 42/104/4 47/115/4 48/116/4 43/105/4
f 48/117/5 46/110/5 44/109/5 43/118/5
f 42/104/6 41/119/6 45/120/6 47/115/6
f 49/121/1 50/122/1 51/123/1 52/124/1
f 53/125/2 49/126/2 52/127/2 54/128/2
f 55/129/3 53/130/3 54/131/3 56/132/3
f 50/133/4 55/134/4 56/135/4 51/136/4
f 56/137/5 54/138/5 52/127/5 51/136/5
f 50/139/6 49/140/6 53/141/6 55/142/6
f 57/143/1 58/144/1 59/145/1 60/146/1
f 61/147/2 57/148/2 60/149/2 62/150/2
f 63/151/3 61/152/3 62/153/3 64/154/3
f 58/144/4 63/155/4 64/156/4 59/145/4
f 64/157/5 62/150/5 60/149/5 59/158/5
f 58/144/6 57/159/6 61/160/6 63/155/6
